<svg xmlns="http://www.w3.org/2000/svg" viewBox="0 0 200 200" width="200" height="200">
<rect width="200" height="200" fill="#FAFAFA"/>
<g stroke="#FF3D6E" fill="none" stroke-width="2" stroke-linecap="round">
<line x1="100" y1="82" x2="100" y2="28" opacity="1"/><circle cx="100" cy="28" r="3" fill="#FF3D6E" opacity="1"/><line x1="109" y1="84.41" x2="136" y2="37.65" opacity="0.55"/><circle cx="136" cy="37.65" r="2" fill="#FF3D6E" opacity="0.55"/><line x1="115.59" y1="91" x2="162.35" y2="64" opacity="1"/><circle cx="162.35" cy="64" r="3" fill="#FF3D6E" opacity="1"/><line x1="118" y1="100" x2="172" y2="100" opacity="0.55"/><circle cx="172" cy="100" r="2" fill="#FF3D6E" opacity="0.55"/><line x1="115.59" y1="109" x2="162.35" y2="136" opacity="1"/><circle cx="162.35" cy="136" r="3" fill="#FF3D6E" opacity="1"/><line x1="109" y1="115.59" x2="136" y2="162.35" opacity="0.55"/><circle cx="136" cy="162.35" r="2" fill="#FF3D6E" opacity="0.55"/><line x1="100" y1="118" x2="100" y2="172" opacity="1"/><circle cx="100" cy="172" r="3" fill="#FF3D6E" opacity="1"/><line x1="91" y1="115.59" x2="64" y2="162.35" opacity="0.55"/><circle cx="64" cy="162.35" r="2" fill="#FF3D6E" opacity="0.55"/><line x1="84.41" y1="109" x2="37.65" y2="136" opacity="1"/><circle cx="37.65" cy="136" r="3" fill="#FF3D6E" opacity="1"/><line x1="82" y1="100" x2="28" y2="100" opacity="0.55"/><circle cx="28" cy="100" r="2" fill="#FF3D6E" opacity="0.55"/><line x1="84.41" y1="91" x2="37.65" y2="64" opacity="1"/><circle cx="37.65" cy="64" r="3" fill="#FF3D6E" opacity="1"/><line x1="91" y1="84.41" x2="64" y2="37.65" opacity="0.55"/><circle cx="64" cy="37.65" r="2" fill="#FF3D6E" opacity="0.55"/>
<circle cx="100" cy="100" r="9" fill="#FF3D6E"/>
<circle cx="100" cy="100" r="15" stroke-width="1.2" stroke-dasharray="1.5 3" opacity="0.5"/>
</g>
<text x="100" y="190" text-anchor="middle" font-family="Helvetica, Arial, sans-serif" font-size="11" font-weight="700" letter-spacing="2" fill="#FF3D6E">SYNAPSE</text>
</svg>