<svg xmlns="http://www.w3.org/2000/svg" viewBox="0 0 200 200" width="200" height="200">
<rect width="200" height="200" fill="#FAFAFA"/>
<g stroke="#4338CA" fill="none" stroke-width="2.4" stroke-linecap="round" stroke-linejoin="round">
<path d="M95 50 C70 50 55 75 60 100 C50 110 60 135 80 140 C85 152 95 152 95 140 Z" stroke-width="3"/>
<path d="M105 50 C130 50 145 75 140 100 C150 110 140 135 120 140 C115 152 105 152 105 140 Z" stroke-width="3"/>
<path d="M82 75 Q90 88 80 100 Q70 112 80 125" stroke-width="1.8" opacity="0.7"/>
<path d="M118 75 Q110 88 120 100 Q130 112 120 125" stroke-width="1.8" opacity="0.7"/>
<path d="M70 105 Q80 110 75 122" stroke-width="1.4" opacity="0.5"/>
<path d="M130 105 Q120 110 125 122" stroke-width="1.4" opacity="0.5"/>
<line x1="100" y1="48" x2="100" y2="155" stroke-width="1" stroke-dasharray="2 3" opacity="0.6"/>
</g>
<text x="100" y="190" text-anchor="middle" font-family="Helvetica, Arial, sans-serif" font-size="11" font-weight="700" letter-spacing="2" fill="#4338CA">HEMISPHERE</text>
</svg>