<svg xmlns="http://www.w3.org/2000/svg" viewBox="0 0 200 200" width="200" height="200">
<rect width="200" height="200" fill="#FAFAFA"/>
<g stroke="#7E22CE" fill="none">
<circle cx="100" cy="100" r="65" stroke-width="1" stroke-dasharray="3 4" opacity="0.5"/><circle cx="100" cy="100" r="73" stroke-width="1" stroke-dasharray="3 4" opacity="0.37"/><circle cx="100" cy="100" r="81" stroke-width="1" stroke-dasharray="3 4" opacity="0.24"/>
<circle cx="50" cy="80" r="3.27" fill="#7E22CE" opacity="0.82"/><circle cx="50" cy="90" r="1.59" fill="#7E22CE" opacity="0.44"/><circle cx="50" cy="100" r="1.18" fill="#7E22CE" opacity="0.34"/><circle cx="50" cy="110" r="1.59" fill="#7E22CE" opacity="0.44"/><circle cx="50" cy="120" r="3.27" fill="#7E22CE" opacity="0.82"/><circle cx="60" cy="70" r="1.18" fill="#7E22CE" opacity="0.34"/><circle cx="60" cy="80" r="2.81" fill="#7E22CE" opacity="0.71"/><circle cx="60" cy="90" r="3.74" fill="#7E22CE" opacity="0.93"/><circle cx="60" cy="100" r="3.32" fill="#7E22CE" opacity="0.83"/><circle cx="60" cy="110" r="3.74" fill="#7E22CE" opacity="0.93"/><circle cx="60" cy="120" r="2.81" fill="#7E22CE" opacity="0.71"/><circle cx="60" cy="130" r="1.18" fill="#7E22CE" opacity="0.34"/><circle cx="70" cy="60" r="1.18" fill="#7E22CE" opacity="0.34"/><circle cx="70" cy="70" r="3.76" fill="#7E22CE" opacity="0.93"/><circle cx="70" cy="80" r="1.18" fill="#7E22CE" opacity="0.34"/><circle cx="70" cy="90" r="2.27" fill="#7E22CE" opacity="0.59"/><circle cx="70" cy="100" r="3.23" fill="#7E22CE" opacity="0.81"/><circle cx="70" cy="110" r="2.27" fill="#7E22CE" opacity="0.59"/><circle cx="70" cy="120" r="1.18" fill="#7E22CE" opacity="0.34"/><circle cx="70" cy="130" r="3.76" fill="#7E22CE" opacity="0.93"/><circle cx="70" cy="140" r="1.18" fill="#7E22CE" opacity="0.34"/><circle cx="80" cy="50" r="3.27" fill="#7E22CE" opacity="0.82"/><circle cx="80" cy="60" r="2.81" fill="#7E22CE" opacity="0.71"/><circle cx="80" cy="70" r="1.18" fill="#7E22CE" opacity="0.34"/><circle cx="80" cy="80" r="3.78" fill="#7E22CE" opacity="0.94"/><circle cx="80" cy="90" r="1.28" fill="#7E22CE" opacity="0.36"/><circle cx="80" cy="100" r="1.12" fill="#7E22CE" opacity="0.33"/><circle cx="80" cy="110" r="1.28" fill="#7E22CE" opacity="0.36"/><circle cx="80" cy="120" r="3.78" fill="#7E22CE" opacity="0.94"/><circle cx="80" cy="130" r="1.18" fill="#7E22CE" opacity="0.34"/><circle cx="80" cy="140" r="2.81" fill="#7E22CE" opacity="0.71"/><circle cx="80" cy="150" r="3.27" fill="#7E22CE" opacity="0.82"/><circle cx="90" cy="50" r="1.59" fill="#7E22CE" opacity="0.44"/><circle cx="90" cy="60" r="3.74" fill="#7E22CE" opacity="0.93"/><circle cx="90" cy="70" r="2.27" fill="#7E22CE" opacity="0.59"/><circle cx="90" cy="80" r="1.28" fill="#7E22CE" opacity="0.36"/><circle cx="90" cy="90" r="3.8" fill="#7E22CE" opacity="0.94"/><circle cx="90" cy="100" r="2.1" fill="#7E22CE" opacity="0.55"/><circle cx="90" cy="110" r="3.8" fill="#7E22CE" opacity="0.94"/><circle cx="90" cy="120" r="1.28" fill="#7E22CE" opacity="0.36"/><circle cx="90" cy="130" r="2.27" fill="#7E22CE" opacity="0.59"/><circle cx="90" cy="140" r="3.74" fill="#7E22CE" opacity="0.93"/><circle cx="90" cy="150" r="1.59" fill="#7E22CE" opacity="0.44"/><circle cx="100" cy="50" r="1.18" fill="#7E22CE" opacity="0.34"/><circle cx="100" cy="60" r="3.32" fill="#7E22CE" opacity="0.83"/><circle cx="100" cy="70" r="3.23" fill="#7E22CE" opacity="0.81"/><circle cx="100" cy="80" r="1.12" fill="#7E22CE" opacity="0.33"/><circle cx="100" cy="90" r="2.1" fill="#7E22CE" opacity="0.55"/><circle cx="100" cy="100" r="3.8" fill="#7E22CE" opacity="0.94"/><circle cx="100" cy="110" r="2.1" fill="#7E22CE" opacity="0.55"/><circle cx="100" cy="120" r="1.12" fill="#7E22CE" opacity="0.33"/><circle cx="100" cy="130" r="3.23" fill="#7E22CE" opacity="0.81"/><circle cx="100" cy="140" r="3.32" fill="#7E22CE" opacity="0.83"/><circle cx="100" cy="150" r="1.18" fill="#7E22CE" opacity="0.34"/><circle cx="110" cy="50" r="1.59" fill="#7E22CE" opacity="0.44"/><circle cx="110" cy="60" r="3.74" fill="#7E22CE" opacity="0.93"/><circle cx="110" cy="70" r="2.27" fill="#7E22CE" opacity="0.59"/><circle cx="110" cy="80" r="1.28" fill="#7E22CE" opacity="0.36"/><circle cx="110" cy="90" r="3.8" fill="#7E22CE" opacity="0.94"/><circle cx="110" cy="100" r="2.1" fill="#7E22CE" opacity="0.55"/><circle cx="110" cy="110" r="3.8" fill="#7E22CE" opacity="0.94"/><circle cx="110" cy="120" r="1.28" fill="#7E22CE" opacity="0.36"/><circle cx="110" cy="130" r="2.27" fill="#7E22CE" opacity="0.59"/><circle cx="110" cy="140" r="3.74" fill="#7E22CE" opacity="0.93"/><circle cx="110" cy="150" r="1.59" fill="#7E22CE" opacity="0.44"/><circle cx="120" cy="50" r="3.27" fill="#7E22CE" opacity="0.82"/><circle cx="120" cy="60" r="2.81" fill="#7E22CE" opacity="0.71"/><circle cx="120" cy="70" r="1.18" fill="#7E22CE" opacity="0.34"/><circle cx="120" cy="80" r="3.78" fill="#7E22CE" opacity="0.94"/><circle cx="120" cy="90" r="1.28" fill="#7E22CE" opacity="0.36"/><circle cx="120" cy="100" r="1.12" fill="#7E22CE" opacity="0.33"/><circle cx="120" cy="110" r="1.28" fill="#7E22CE" opacity="0.36"/><circle cx="120" cy="120" r="3.78" fill="#7E22CE" opacity="0.94"/><circle cx="120" cy="130" r="1.18" fill="#7E22CE" opacity="0.34"/><circle cx="120" cy="140" r="2.81" fill="#7E22CE" opacity="0.71"/><circle cx="120" cy="150" r="3.27" fill="#7E22CE" opacity="0.82"/><circle cx="130" cy="60" r="1.18" fill="#7E22CE" opacity="0.34"/><circle cx="130" cy="70" r="3.76" fill="#7E22CE" opacity="0.93"/><circle cx="130" cy="80" r="1.18" fill="#7E22CE" opacity="0.34"/><circle cx="130" cy="90" r="2.27" fill="#7E22CE" opacity="0.59"/><circle cx="130" cy="100" r="3.23" fill="#7E22CE" opacity="0.81"/><circle cx="130" cy="110" r="2.27" fill="#7E22CE" opacity="0.59"/><circle cx="130" cy="120" r="1.18" fill="#7E22CE" opacity="0.34"/><circle cx="130" cy="130" r="3.76" fill="#7E22CE" opacity="0.93"/><circle cx="130" cy="140" r="1.18" fill="#7E22CE" opacity="0.34"/><circle cx="140" cy="70" r="1.18" fill="#7E22CE" opacity="0.34"/><circle cx="140" cy="80" r="2.81" fill="#7E22CE" opacity="0.71"/><circle cx="140" cy="90" r="3.74" fill="#7E22CE" opacity="0.93"/><circle cx="140" cy="100" r="3.32" fill="#7E22CE" opacity="0.83"/><circle cx="140" cy="110" r="3.74" fill="#7E22CE" opacity="0.93"/><circle cx="140" cy="120" r="2.81" fill="#7E22CE" opacity="0.71"/><circle cx="140" cy="130" r="1.18" fill="#7E22CE" opacity="0.34"/><circle cx="150" cy="80" r="3.27" fill="#7E22CE" opacity="0.82"/><circle cx="150" cy="90" r="1.59" fill="#7E22CE" opacity="0.44"/><circle cx="150" cy="100" r="1.18" fill="#7E22CE" opacity="0.34"/><circle cx="150" cy="110" r="1.59" fill="#7E22CE" opacity="0.44"/><circle cx="150" cy="120" r="3.27" fill="#7E22CE" opacity="0.82"/>
</g>
<text x="100" y="190" text-anchor="middle" font-family="Helvetica, Arial, sans-serif" font-size="11" font-weight="700" letter-spacing="2" fill="#7E22CE">QUANTUM</text>
</svg>