<svg xmlns="http://www.w3.org/2000/svg" viewBox="0 0 200 200" width="200" height="200">
<rect width="200" height="200" fill="#FAFAFA"/>
<g stroke="#059669" fill="none" stroke-width="1.6" stroke-linecap="round">
<path d="M30 100 Q100 50 170 100 Q100 150 30 100 Z" stroke-width="3"/>
<circle cx="100" cy="100" r="28"/>
<line x1="108" y1="100" x2="122" y2="100" opacity="1"/><line x1="107.39" y1="103.06" x2="120.33" y2="108.42" opacity="0.55"/><line x1="105.66" y1="105.66" x2="115.56" y2="115.56" opacity="1"/><line x1="103.06" y1="107.39" x2="108.42" y2="120.33" opacity="0.55"/><line x1="100" y1="108" x2="100" y2="122" opacity="1"/><line x1="96.94" y1="107.39" x2="91.58" y2="120.33" opacity="0.55"/><line x1="94.34" y1="105.66" x2="84.44" y2="115.56" opacity="1"/><line x1="92.61" y1="103.06" x2="79.67" y2="108.42" opacity="0.55"/><line x1="92" y1="100" x2="78" y2="100" opacity="1"/><line x1="92.61" y1="96.94" x2="79.67" y2="91.58" opacity="0.55"/><line x1="94.34" y1="94.34" x2="84.44" y2="84.44" opacity="1"/><line x1="96.94" y1="92.61" x2="91.58" y2="79.67" opacity="0.55"/><line x1="100" y1="92" x2="100" y2="78" opacity="1"/><line x1="103.06" y1="92.61" x2="108.42" y2="79.67" opacity="0.55"/><line x1="105.66" y1="94.34" x2="115.56" y2="84.44" opacity="1"/><line x1="107.39" y1="96.94" x2="120.33" y2="91.58" opacity="0.55"/>
<circle cx="100" cy="100" r="6" fill="#059669"/>
<circle cx="106" cy="94" r="2" fill="white"/>
</g>
<text x="100" y="190" text-anchor="middle" font-family="Helvetica, Arial, sans-serif" font-size="11" font-weight="700" letter-spacing="2" fill="#059669">IRIS</text>
</svg>