<svg xmlns="http://www.w3.org/2000/svg" viewBox="0 0 200 200" width="200" height="200">
<rect width="200" height="200" fill="#FAFAFA"/>
<g stroke="#14B8A6" fill="none" stroke-width="2.2" stroke-linecap="round">
<path d="M30 55 Q38.75 47 47.5 55 Q56.25 59.51 65 55 Q73.75 47.38 82.5 55 Q91.25 62.39 100 55 Q108.75 46.26 117.5 55 Q126.25 59.8 135 55 Q143.75 48.05 152.5 55 Q161.25 61.93 170 55" opacity="0.35"/><path d="M30 75 Q38.75 64.03 47.5 75 Q56.25 81.77 65 75 Q73.75 69.78 82.5 75 Q91.25 79.52 100 75 Q108.75 64.6 117.5 75 Q126.25 83.1 135 75 Q143.75 68.85 152.5 75 Q161.25 78.42 170 75" opacity="0.43"/><path d="M30 95 Q38.75 88.15 47.5 95 Q56.25 105.17 65 95 Q73.75 84.78 82.5 95 Q91.25 97.41 100 95 Q108.75 90.15 117.5 95 Q126.25 103.78 135 95 Q143.75 83.13 152.5 95 Q161.25 99.21 170 95" opacity="1.00"/><path d="M30 115 Q38.75 112.55 47.5 115 Q56.25 118.04 65 115 Q73.75 102.21 82.5 115 Q91.25 125.2 100 115 Q108.75 110.71 117.5 115 Q126.25 115.85 135 115 Q143.75 104.62 152.5 115 Q161.25 126.77 170 115" opacity="1.00"/><path d="M30 135 Q38.75 123.29 47.5 135 Q56.25 135.01 65 135 Q73.75 132.25 82.5 135 Q91.25 145.64 100 135 Q108.75 120.56 117.5 135 Q126.25 138.02 135 135 Q143.75 134.21 152.5 135 Q161.25 142.12 170 135" opacity="0.43"/><path d="M30 155 Q38.75 139.81 47.5 155 Q56.25 167.3 65 155 Q73.75 152.56 82.5 155 Q91.25 153.27 100 155 Q108.75 143.43 117.5 155 Q126.25 169.65 135 155 Q143.75 148.34 152.5 155 Q161.25 152 170 155" opacity="0.35"/>
</g>
<text x="100" y="190" text-anchor="middle" font-family="Helvetica, Arial, sans-serif" font-size="11" font-weight="700" letter-spacing="2" fill="#14B8A6">BRAINWAVE</text>
</svg>