<svg xmlns="http://www.w3.org/2000/svg" viewBox="0 0 200 200" width="200" height="200">
<rect width="200" height="200" fill="#FAFAFA"/>
<g stroke="#DC2626" fill="none" stroke-width="2.5" stroke-linecap="round">
<path d="M50 60 C70 80 90 60 100 80 C110 100 130 80 150 100 C130 120 110 100 100 120 C90 140 70 120 50 140"/>
<path d="M50 75 C70 95 90 75 100 95 C110 115 130 95 150 115" opacity="0.7"/>
<path d="M50 90 C70 110 90 90 100 110 C110 130 130 110 150 130" opacity="0.45"/>
<circle cx="50" cy="60" r="2.5" fill="#DC2626"/>
<circle cx="150" cy="100" r="2.5" fill="#DC2626"/>
<circle cx="50" cy="140" r="2.5" fill="#DC2626"/>
</g>
<text x="100" y="190" text-anchor="middle" font-family="Helvetica, Arial, sans-serif" font-size="11" font-weight="700" letter-spacing="2" fill="#DC2626">THREADWORK</text>
</svg>