<svg xmlns="http://www.w3.org/2000/svg" viewBox="0 0 200 200" width="200" height="200">
<rect width="200" height="200" fill="#FAFAFA"/>
<g stroke="#C026D3" fill="none" stroke-width="1.6" stroke-linecap="round">
<line x1="100" y1="100" x2="100" y2="55" opacity="0.55"/><line x1="100" y1="100" x2="65" y2="70" opacity="0.55"/><line x1="100" y1="100" x2="140" y2="75" opacity="0.55"/><line x1="100" y1="100" x2="55" y2="110" opacity="0.55"/><line x1="100" y1="100" x2="150" y2="115" opacity="0.55"/><line x1="100" y1="100" x2="75" y2="150" opacity="0.55"/><line x1="100" y1="100" x2="130" y2="150" opacity="0.55"/><line x1="100" y1="55" x2="65" y2="70" opacity="0.55"/><line x1="100" y1="55" x2="140" y2="75" opacity="0.55"/><line x1="65" y1="70" x2="55" y2="110" opacity="0.55"/><line x1="140" y1="75" x2="150" y2="115" opacity="0.55"/><line x1="55" y1="110" x2="75" y2="150" opacity="0.55"/><line x1="150" y1="115" x2="130" y2="150" opacity="0.55"/><line x1="75" y1="150" x2="130" y2="150" opacity="0.55"/>
<circle cx="100" cy="55" r="4" fill="#C026D3"/><circle cx="65" cy="70" r="4" fill="#C026D3"/><circle cx="140" cy="75" r="4" fill="#C026D3"/><circle cx="55" cy="110" r="4" fill="#C026D3"/><circle cx="150" cy="115" r="4" fill="#C026D3"/><circle cx="75" cy="150" r="4" fill="#C026D3"/><circle cx="130" cy="150" r="4" fill="#C026D3"/><circle cx="100" cy="100" r="6" fill="#C026D3"/><circle cx="100" cy="100" r="11" stroke-width="1" stroke-dasharray="2 2" opacity="0.5"/>
</g>
<text x="100" y="190" text-anchor="middle" font-family="Helvetica, Arial, sans-serif" font-size="11" font-weight="700" letter-spacing="2" fill="#C026D3">NETWORK</text>
</svg>