<svg xmlns="http://www.w3.org/2000/svg" viewBox="0 0 200 200" width="200" height="200">
<rect width="200" height="200" fill="#FAFAFA"/>
<g stroke="#4F46E5" fill="none" stroke-width="3" stroke-linecap="round">
<path d="M40 60 Q50 52 60 60 Q70 68 80 60 Q90 52 100 60 Q110 68 120 60 Q130 52 140 60 Q150 68 160 60 Q170 52 180 60" opacity="1.00"/><path d="M40 80 Q50 71.2 60 80 Q70 88.8 80 80 Q90 71.2 100 80 Q110 88.8 120 80 Q130 71.2 140 80 Q150 88.8 160 80 Q170 71.2 180 80" opacity="0.87"/><path d="M40 100 Q50 90.4 60 100 Q70 109.6 80 100 Q90 90.4 100 100 Q110 109.6 120 100 Q130 90.4 140 100 Q150 109.6 160 100 Q170 90.4 180 100" opacity="0.74"/><path d="M40 120 Q50 109.6 60 120 Q70 130.4 80 120 Q90 109.6 100 120 Q110 130.4 120 120 Q130 109.6 140 120 Q150 130.4 160 120 Q170 109.6 180 120" opacity="0.61"/><path d="M40 140 Q50 128.8 60 140 Q70 151.2 80 140 Q90 128.8 100 140 Q110 151.2 120 140 Q130 128.8 140 140 Q150 151.2 160 140 Q170 128.8 180 140" opacity="0.48"/>
</g>
<text x="100" y="190" text-anchor="middle" font-family="Helvetica, Arial, sans-serif" font-size="11" font-weight="700" letter-spacing="2" fill="#4F46E5">CORTEX</text>
</svg>