<svg xmlns="http://www.w3.org/2000/svg" viewBox="0 0 200 200" width="200" height="200">
<rect width="200" height="200" fill="#FAFAFA"/>
<g stroke="#16A34A" fill="none" stroke-width="2.4" stroke-linecap="round" stroke-linejoin="round">
<line x1="100" y1="170" x2="100" y2="120"/>
<path d="M100 120 Q85 110 75 95"/>
<path d="M100 120 Q115 110 125 95"/>
<path d="M75 95 Q65 80 55 65"/>
<path d="M75 95 Q80 75 90 60"/>
<path d="M125 95 Q135 80 145 65"/>
<path d="M125 95 Q120 75 110 60"/>
<path d="M55 65 Q45 50 50 38"/>
<path d="M55 65 Q60 50 70 45"/>
<path d="M90 60 Q90 45 95 38"/>
<path d="M110 60 Q110 45 105 38"/>
<path d="M145 65 Q155 50 150 38"/>
<path d="M145 65 Q140 50 130 45"/>
<circle cx="55" cy="65" r="2.5" fill="#16A34A"/><circle cx="75" cy="95" r="2.5" fill="#16A34A"/><circle cx="90" cy="60" r="2.5" fill="#16A34A"/><circle cx="110" cy="60" r="2.5" fill="#16A34A"/><circle cx="125" cy="95" r="2.5" fill="#16A34A"/><circle cx="145" cy="65" r="2.5" fill="#16A34A"/><circle cx="50" cy="38" r="2.5" fill="#16A34A"/><circle cx="70" cy="45" r="2.5" fill="#16A34A"/><circle cx="95" cy="38" r="2.5" fill="#16A34A"/><circle cx="105" cy="38" r="2.5" fill="#16A34A"/><circle cx="130" cy="45" r="2.5" fill="#16A34A"/><circle cx="150" cy="38" r="2.5" fill="#16A34A"/>
</g>
<text x="100" y="190" text-anchor="middle" font-family="Helvetica, Arial, sans-serif" font-size="11" font-weight="700" letter-spacing="2" fill="#16A34A">BRANCH</text>
</svg>