<svg xmlns="http://www.w3.org/2000/svg" viewBox="0 0 200 200" width="200" height="200">
<rect width="200" height="200" fill="#FAFAFA"/>
<defs><clipPath id="cl07"><circle cx="100" cy="100" r="65"/></clipPath></defs>
<g stroke="#EC4899" stroke-width="1" clip-path="url(#cl07)">
<line x1="-66" y1="30" x2="74" y2="170" opacity="0.5"/><line x1="266" y1="30" x2="126" y2="170" opacity="0.5"/><line x1="-54" y1="30" x2="86" y2="170" opacity="0.5"/><line x1="254" y1="30" x2="114" y2="170" opacity="0.5"/><line x1="-42" y1="30" x2="98" y2="170" opacity="0.5"/><line x1="242" y1="30" x2="102" y2="170" opacity="0.5"/><line x1="-30" y1="30" x2="110" y2="170" opacity="0.5"/><line x1="230" y1="30" x2="90" y2="170" opacity="0.5"/><line x1="-18" y1="30" x2="122" y2="170" opacity="0.5"/><line x1="218" y1="30" x2="78" y2="170" opacity="0.5"/><line x1="-6" y1="30" x2="134" y2="170" opacity="0.5"/><line x1="206" y1="30" x2="66" y2="170" opacity="0.5"/><line x1="6" y1="30" x2="146" y2="170" opacity="0.5"/><line x1="194" y1="30" x2="54" y2="170" opacity="0.5"/><line x1="18" y1="30" x2="158" y2="170" opacity="0.5"/><line x1="182" y1="30" x2="42" y2="170" opacity="0.5"/><line x1="30" y1="30" x2="170" y2="170" opacity="0.5"/><line x1="170" y1="30" x2="30" y2="170" opacity="0.5"/><line x1="42" y1="30" x2="182" y2="170" opacity="0.5"/><line x1="158" y1="30" x2="18" y2="170" opacity="0.5"/><line x1="54" y1="30" x2="194" y2="170" opacity="0.5"/><line x1="146" y1="30" x2="6" y2="170" opacity="0.5"/><line x1="66" y1="30" x2="206" y2="170" opacity="0.5"/><line x1="134" y1="30" x2="-6" y2="170" opacity="0.5"/><line x1="78" y1="30" x2="218" y2="170" opacity="0.5"/><line x1="122" y1="30" x2="-18" y2="170" opacity="0.5"/><line x1="90" y1="30" x2="230" y2="170" opacity="0.5"/><line x1="110" y1="30" x2="-30" y2="170" opacity="0.5"/><line x1="102" y1="30" x2="242" y2="170" opacity="0.5"/><line x1="98" y1="30" x2="-42" y2="170" opacity="0.5"/><line x1="114" y1="30" x2="254" y2="170" opacity="0.5"/><line x1="86" y1="30" x2="-54" y2="170" opacity="0.5"/><line x1="126" y1="30" x2="266" y2="170" opacity="0.5"/><line x1="74" y1="30" x2="-66" y2="170" opacity="0.5"/>
</g>
<circle cx="100" cy="100" r="65" fill="none" stroke="#EC4899" stroke-width="3"/>
<circle cx="100" cy="100" r="6" fill="#EC4899"/>
<text x="100" y="190" text-anchor="middle" font-family="Helvetica, Arial, sans-serif" font-size="11" font-weight="700" letter-spacing="2" fill="#EC4899">LATTICE</text>
</svg>