<svg xmlns="http://www.w3.org/2000/svg" viewBox="0 0 200 200" width="200" height="200">
<rect width="200" height="200" fill="#FAFAFA"/>
<g stroke="#9333EA" fill="none" stroke-width="1.8" stroke-linecap="round">
<path d="M108 100 L110.35 101.15 L112.52 102.81 L114.41 104.95 L115.96 107.54 L117.09 110.52 L117.73 113.82 L117.83 117.37 L117.34 121.1 L116.23 124.9 L114.48 128.69 L112.07 132.37 L109.03 135.85 L105.35 139.01 L101.09 141.78 L96.27 144.05 L90.98 145.74 L85.27 146.77 L79.24 147.07 L72.97 146.59 L66.57 145.27 L60.15 143.08 L53.82 140.01 L47.71 136.06 L41.93 131.22 L36.61 125.54 L31.85 119.05 L27.79 111.82 L24.52 103.92 L22.13 95.45"/><path d="M96 106.93 L93.83 108.39 L91.31 109.44 L88.5 110.01 L85.49 110.05 L82.34 109.54 L79.16 108.45 L76.04 106.76 L73.06 104.47 L70.32 101.61 L67.91 98.19 L65.93 94.27 L64.44 89.89 L63.54 85.13 L63.28 80.05 L63.71 74.75 L64.9 69.32 L66.86 63.86 L69.62 58.48 L73.17 53.3 L77.51 48.41 L82.61 43.94 L88.44 40 L94.92 36.69 L102 34.1 L109.58 32.33 L117.57 31.46 L125.87 31.55 L134.34 32.67 L142.88 34.84"/><path d="M96 93.07 L95.82 90.46 L96.17 87.76 L97.08 85.04 L98.55 82.4 L100.56 79.94 L103.1 77.73 L106.13 75.87 L109.6 74.43 L113.45 73.49 L117.61 73.12 L122 73.36 L126.53 74.26 L131.11 75.86 L135.64 78.17 L140.01 81.2 L144.12 84.94 L147.87 89.37 L151.15 94.44 L153.86 100.12 L155.92 106.32 L157.24 112.97 L157.74 119.98 L157.37 127.26 L156.07 134.68 L153.81 142.13 L150.57 149.49 L146.34 156.63 L141.14 163.41 L134.99 169.71"/>
<circle cx="128" cy="100" r="2" fill="#9333EA" opacity="0.5"/><circle cx="131.15" cy="123.47" r="1.2" fill="#9333EA" opacity="0.9"/><circle cx="113.78" cy="148.06" r="1.2" fill="#9333EA" opacity="0.5"/><circle cx="78.14" cy="156.95" r="2" fill="#9333EA" opacity="0.9"/><circle cx="38.94" cy="138.15" r="1.2" fill="#9333EA" opacity="0.5"/><circle cx="72.11" cy="97.56" r="1.2" fill="#9333EA" opacity="0.9"/><circle cx="71.02" cy="73.9" r="2" fill="#9333EA" opacity="0.5"/><circle cx="90.46" cy="50.92" r="1.2" fill="#9333EA" opacity="0.9"/><circle cx="126.74" cy="45.17" r="1.2" fill="#9333EA" opacity="0.5"/><circle cx="164.15" cy="67.31" r="2" fill="#9333EA" opacity="0.9"/><circle cx="127.57" cy="104.86" r="1.2" fill="#9333EA" opacity="0.5"/><circle cx="126.6" cy="128.52" r="1.2" fill="#9333EA" opacity="0.9"/><circle cx="105.23" cy="149.73" r="2" fill="#9333EA" opacity="0.5"/><circle cx="68.58" cy="152.29" r="1.2" fill="#9333EA" opacity="0.9"/>
<circle cx="100" cy="100" r="6" fill="#9333EA"/>
</g>
<text x="100" y="190" text-anchor="middle" font-family="Helvetica, Arial, sans-serif" font-size="11" font-weight="700" letter-spacing="2" fill="#9333EA">GALAXY</text>
</svg>