<svg xmlns="http://www.w3.org/2000/svg" viewBox="0 0 200 200" width="200" height="200">
<rect width="200" height="200" fill="#FAFAFA"/>
<g stroke="#F59E0B" fill="none" stroke-width="1.4" stroke-linecap="round">
<line x1="60" y1="90" x2="70" y2="65" opacity="0.45"/><line x1="70" y1="65" x2="95" y2="55" opacity="0.45"/><line x1="95" y1="55" x2="125" y2="58" opacity="0.45"/><line x1="125" y1="58" x2="148" y2="80" opacity="0.45"/><line x1="148" y1="80" x2="150" y2="110" opacity="0.45"/><line x1="150" y1="110" x2="135" y2="138" opacity="0.45"/><line x1="135" y1="138" x2="105" y2="145" opacity="0.45"/><line x1="105" y1="145" x2="80" y2="130" opacity="0.45"/><line x1="80" y1="130" x2="60" y2="90" opacity="0.45"/><line x1="90" y1="95" x2="70" y2="65" opacity="0.45"/><line x1="90" y1="95" x2="95" y2="55" opacity="0.45"/><line x1="90" y1="95" x2="80" y2="130" opacity="0.45"/><line x1="90" y1="95" x2="108" y2="115" opacity="0.45"/><line x1="115" y1="88" x2="95" y2="55" opacity="0.45"/><line x1="115" y1="88" x2="125" y2="58" opacity="0.45"/><line x1="115" y1="88" x2="148" y2="80" opacity="0.45"/><line x1="115" y1="88" x2="108" y2="115" opacity="0.45"/><line x1="108" y1="115" x2="135" y2="138" opacity="0.45"/><line x1="108" y1="115" x2="105" y2="145" opacity="0.45"/>
<circle cx="60" cy="90" r="3.5" fill="#F59E0B"/><circle cx="60" cy="90" r="6" stroke-width="1" opacity="0.3"/><circle cx="70" cy="65" r="3.5" fill="#F59E0B"/><circle cx="70" cy="65" r="6" stroke-width="1" opacity="0.3"/><circle cx="95" cy="55" r="3.5" fill="#F59E0B"/><circle cx="95" cy="55" r="6" stroke-width="1" opacity="0.3"/><circle cx="125" cy="58" r="3.5" fill="#F59E0B"/><circle cx="125" cy="58" r="6" stroke-width="1" opacity="0.3"/><circle cx="148" cy="80" r="3.5" fill="#F59E0B"/><circle cx="148" cy="80" r="6" stroke-width="1" opacity="0.3"/><circle cx="150" cy="110" r="3.5" fill="#F59E0B"/><circle cx="150" cy="110" r="6" stroke-width="1" opacity="0.3"/><circle cx="135" cy="138" r="3.5" fill="#F59E0B"/><circle cx="135" cy="138" r="6" stroke-width="1" opacity="0.3"/><circle cx="105" cy="145" r="3.5" fill="#F59E0B"/><circle cx="105" cy="145" r="6" stroke-width="1" opacity="0.3"/><circle cx="80" cy="130" r="3.5" fill="#F59E0B"/><circle cx="80" cy="130" r="6" stroke-width="1" opacity="0.3"/><circle cx="90" cy="95" r="3.5" fill="#F59E0B"/><circle cx="90" cy="95" r="6" stroke-width="1" opacity="0.3"/><circle cx="115" cy="88" r="3.5" fill="#F59E0B"/><circle cx="115" cy="88" r="6" stroke-width="1" opacity="0.3"/><circle cx="108" cy="115" r="3.5" fill="#F59E0B"/><circle cx="108" cy="115" r="6" stroke-width="1" opacity="0.3"/>
</g>
<text x="100" y="190" text-anchor="middle" font-family="Helvetica, Arial, sans-serif" font-size="11" font-weight="700" letter-spacing="2" fill="#F59E0B">CONSTELLATION</text>
</svg>