<svg xmlns="http://www.w3.org/2000/svg" viewBox="0 0 200 200" width="200" height="200">
<rect width="200" height="200" fill="#FAFAFA"/>
<g stroke="#1D4ED8" fill="none" stroke-width="2.4" stroke-linecap="round" stroke-linejoin="round">
<path d="M55 100 Q55 50 100 50 Q145 50 145 100 Q145 150 100 150 Q55 150 55 100 Z" stroke-width="3"/>
<path d="M70 100 Q70 65 100 65 Q130 65 130 100 Q130 135 100 135 Q70 135 70 100 Z" opacity="0.7"/>
<path d="M82 100 Q82 78 100 78 Q118 78 118 100 Q118 122 100 122 Q82 122 82 100 Z" opacity="0.5"/>
<path d="M92 100 Q92 90 100 90 Q108 90 108 100 Q108 110 100 110 Q92 110 92 100 Z" opacity="0.4"/>
<circle cx="100" cy="100" r="2" fill="#1D4ED8"/>
</g>
<text x="100" y="190" text-anchor="middle" font-family="Helvetica, Arial, sans-serif" font-size="11" font-weight="700" letter-spacing="2" fill="#1D4ED8">FRACTAL</text>
</svg>