<svg xmlns="http://www.w3.org/2000/svg" viewBox="0 0 200 200" width="200" height="200">
<rect width="200" height="200" fill="#FAFAFA"/>
<g stroke="#8B5CF6" fill="none" stroke-linecap="round">
<path d="M55 100 C55 70 95 70 100 100 C105 130 145 130 145 100 C145 70 105 70 100 100 C95 130 55 130 55 100 Z" stroke-width="3.5"/>
<path d="M65 100 C65 78 92 78 100 100 C108 122 135 122 135 100 C135 78 108 78 100 100 C92 122 65 122 65 100 Z" stroke-width="1.5" opacity="0.55"/>
<path d="M75 100 C75 86 90 86 100 100 C110 114 125 114 125 100" stroke-width="1" opacity="0.35"/>
<circle cx="55" cy="100" r="2.5" fill="#8B5CF6"/>
<circle cx="145" cy="100" r="2.5" fill="#8B5CF6"/>
</g>
<text x="100" y="190" text-anchor="middle" font-family="Helvetica, Arial, sans-serif" font-size="11" font-weight="700" letter-spacing="2" fill="#8B5CF6">MOBIUS</text>
</svg>