<svg xmlns="http://www.w3.org/2000/svg" viewBox="0 0 200 200" width="200" height="200">
<rect width="200" height="200" fill="#FAFAFA"/>
<g stroke="#10B981" fill="none" stroke-width="2" stroke-linecap="round">
<line x1="132" y1="100" x2="178" y2="100" opacity="1"/><line x1="127.05" y1="107.25" x2="167.61" y2="118.12" opacity="0.5"/><line x1="127.71" y1="116" x2="167.55" y2="139" opacity="1"/><line x1="119.8" y1="119.8" x2="149.5" y2="149.5" opacity="0.5"/><line x1="116" y1="127.71" x2="139" y2="167.55" opacity="1"/><line x1="107.25" y1="127.05" x2="118.12" y2="167.61" opacity="0.5"/><line x1="100" y1="132" x2="100" y2="178" opacity="1"/><line x1="92.75" y1="127.05" x2="81.88" y2="167.61" opacity="0.5"/><line x1="84" y1="127.71" x2="61" y2="167.55" opacity="1"/><line x1="80.2" y1="119.8" x2="50.5" y2="149.5" opacity="0.5"/><line x1="72.29" y1="116" x2="32.45" y2="139" opacity="1"/><line x1="72.95" y1="107.25" x2="32.39" y2="118.12" opacity="0.5"/><line x1="68" y1="100" x2="22" y2="100" opacity="1"/><line x1="72.95" y1="92.75" x2="32.39" y2="81.88" opacity="0.5"/><line x1="72.29" y1="84" x2="32.45" y2="61" opacity="1"/><line x1="80.2" y1="80.2" x2="50.5" y2="50.5" opacity="0.5"/><line x1="84" y1="72.29" x2="61" y2="32.45" opacity="1"/><line x1="92.75" y1="72.95" x2="81.88" y2="32.39" opacity="0.5"/><line x1="100" y1="68" x2="100" y2="22" opacity="1"/><line x1="107.25" y1="72.95" x2="118.12" y2="32.39" opacity="0.5"/><line x1="116" y1="72.29" x2="139" y2="32.45" opacity="1"/><line x1="119.8" y1="80.2" x2="149.5" y2="50.5" opacity="0.5"/><line x1="127.71" y1="84" x2="167.55" y2="61" opacity="1"/><line x1="127.05" y1="92.75" x2="167.61" y2="81.88" opacity="0.5"/>
<circle cx="100" cy="100" r="22" fill="#10B981"/>
<path d="M88 92 Q100 84 112 92 M88 100 Q100 92 112 100 M88 108 Q100 100 112 108" stroke="white" stroke-width="1.2"/>
</g>
<text x="100" y="190" text-anchor="middle" font-family="Helvetica, Arial, sans-serif" font-size="11" font-weight="700" letter-spacing="2" fill="#10B981">RADIANCE</text>
</svg>