<?xml version="1.0" encoding="UTF-8"?>
<!-- Created by Gemini CLI - High-Concept Psychology Series -->

    <svg id="logo-06" width="200" height="200" viewBox="0 0 200 200" xmlns="http://www.w3.org/2000/svg">
        <path d="M100 50 C70 50 50 70 50 100 C50 130 70 150 100 150 C130 150 150 130 150 100 C150 70 130 50 100 50 Z" fill="none" stroke="#00ACC1" stroke-width="2"/>
        <path d="M100 50 Q120 75 100 100 Q80 125 100 150" fill="none" stroke="#00ACC1" stroke-width="2" opacity="0.6"/>
        <path d="M70 80 Q85 80 85 95 M115 80 Q130 80 130 95 M70 120 Q85 120 85 105 M115 120 Q130 120 130 105" fill="none" stroke="#00ACC1" stroke-width="2" stroke-linecap="round"/>
        <text x="100" y="180" font-family="Verdana" font-size="14" text-anchor="middle" font-weight="bold" fill="#00ACC1">Empathy</text>
    </svg>