<svg xmlns="http://www.w3.org/2000/svg" viewBox="0 0 200 200" width="200" height="200">
<rect width="200" height="200" fill="#FAFAFA"/>
<g stroke="#BE185D" fill="none" stroke-linecap="round">
<line x1="100" y1="100" x2="170" y2="100" stroke-width="2.6" opacity="1"/><circle cx="170" cy="100" r="3" fill="#BE185D"/><line x1="100" y1="100" x2="149.5" y2="149.5" stroke-width="1.4" opacity="0.55"/><circle cx="149.5" cy="149.5" r="2" fill="#BE185D"/><line x1="100" y1="100" x2="100" y2="170" stroke-width="2.6" opacity="1"/><circle cx="100" cy="170" r="3" fill="#BE185D"/><line x1="100" y1="100" x2="50.5" y2="149.5" stroke-width="1.4" opacity="0.55"/><circle cx="50.5" cy="149.5" r="2" fill="#BE185D"/><line x1="100" y1="100" x2="30" y2="100" stroke-width="2.6" opacity="1"/><circle cx="30" cy="100" r="3" fill="#BE185D"/><line x1="100" y1="100" x2="50.5" y2="50.5" stroke-width="1.4" opacity="0.55"/><circle cx="50.5" cy="50.5" r="2" fill="#BE185D"/><line x1="100" y1="100" x2="100" y2="30" stroke-width="2.6" opacity="1"/><circle cx="100" cy="30" r="3" fill="#BE185D"/><line x1="100" y1="100" x2="149.5" y2="50.5" stroke-width="1.4" opacity="0.55"/><circle cx="149.5" cy="50.5" r="2" fill="#BE185D"/>
<circle cx="100" cy="100" r="22" fill="white" stroke-width="2.5"/>
<path d="M100 80 L107 100 L100 120 L93 100 Z" fill="#BE185D" stroke="none"/>
<circle cx="100" cy="100" r="3" fill="white"/>
<circle cx="100" cy="100" r="78" stroke-width="1" stroke-dasharray="2 4" opacity="0.4"/>
</g>
<text x="100" y="190" text-anchor="middle" font-family="Helvetica, Arial, sans-serif" font-size="11" font-weight="700" letter-spacing="2" fill="#BE185D">COMPASS</text>
</svg>