<svg xmlns="http://www.w3.org/2000/svg" viewBox="0 0 200 200" width="200" height="200">
<rect width="200" height="200" fill="#FAFAFA"/>
<g stroke="#EAB308" fill="none" stroke-width="2.5" stroke-linecap="round" stroke-linejoin="round">
<line x1="149.5" y1="50.5" x2="160.81" y2="39.19"/><line x1="170" y1="100" x2="186" y2="100"/><line x1="149.5" y1="149.5" x2="160.81" y2="160.81"/><line x1="50.5" y1="149.5" x2="39.19" y2="160.81"/><line x1="30" y1="100" x2="14" y2="100"/><line x1="50.5" y1="50.5" x2="39.19" y2="39.19"/>
<path d="M70 100 C70 65 130 65 130 100 C130 118 118 130 115 145 L85 145 C82 130 70 118 70 100 Z" stroke-width="3.5"/>
<line x1="86" y1="155" x2="114" y2="155" stroke-width="3"/>
<line x1="92" y1="165" x2="108" y2="165" stroke-width="3"/>
<path d="M88 100 Q100 88 112 100 M88 115 Q100 103 112 115" stroke-width="1.8" opacity="0.7"/>
</g>
<text x="100" y="190" text-anchor="middle" font-family="Helvetica, Arial, sans-serif" font-size="11" font-weight="700" letter-spacing="2" fill="#EAB308">ILLUMINA</text>
</svg>