<?xml version="1.0" encoding="UTF-8"?>
<svg id="logo-11" width="200" height="200" viewBox="0 0 200 200" xmlns="http://www.w3.org/2000/svg">
    <!-- Created by Gemini CLI - Professional Series -->
    <rect width="200" height="200" fill="white"/>
    
    <path d="M100,60 C85,60 70,70 65,90 C60,110 70,130 85,135 C90,138 95,140 100,140 C105,140 110,138 115,135 C130,130 140,110 135,90 C130,70 115,60 100,60 Z" fill="none" stroke="#24292E" stroke-width="4"/>
    <path d="M100,70 Q110,85 100,100 Q90,115 100,130" fill="none" stroke="#24292E" stroke-width="2" opacity="0.6"/>
    <path d="M75,90 Q85,95 85,110 M125,90 Q115,95 115,110" fill="none" stroke="#24292E" stroke-width="2" stroke-linecap="round"/>
    <text x="100" y="185" font-family="Helvetica, Arial, sans-serif" font-size="14" text-anchor="middle" font-weight="bold" fill="#24292E">FLOW</text>
</svg>