<svg xmlns="http://www.w3.org/2000/svg" viewBox="0 0 200 200" width="200" height="200">
<rect width="200" height="200" fill="#FAFAFA"/>
<g stroke="#1a1a1a" stroke-width="3.2" fill="none" stroke-linecap="round" stroke-linejoin="round">
<path d="M95 52 C72 50 56 72 62 92 C50 102 58 130 78 130 C78 144 88 152 95 144 L95 156"/>
<path d="M82 80 C92 70 100 80 96 92 C82 88 76 100 86 110 C100 110 106 100 100 92"/>
<path d="M105 52 C128 50 144 72 138 92 C150 102 142 130 122 130 C122 144 112 152 105 144 L105 156"/>
<path d="M118 80 C108 70 100 80 104 92 C118 88 124 100 114 110 C100 110 94 100 100 92"/>
</g>
<line x1="100" y1="48" x2="100" y2="158" stroke="#DC2626" stroke-width="1" stroke-dasharray="2 3" opacity="0.7"/>
<text x="100" y="190" text-anchor="middle" font-family="Helvetica, Arial, sans-serif" font-size="11" font-weight="700" letter-spacing="2" fill="#DC2626">DUAL · SKETCH</text>
</svg>