<svg xmlns="http://www.w3.org/2000/svg" viewBox="0 0 200 200" width="200" height="200">
<rect width="200" height="200" fill="#FAFAFA"/>
<defs><clipPath id="clpR03"><path d="M65 90 Q60 60 95 55 Q130 50 140 80 Q155 100 140 130 Q130 155 95 150 Q60 145 65 115 Q55 102 65 90 Z"/></clipPath></defs>
<g clip-path="url(#clpR03)"><circle cx="67" cy="63" r="2.2" fill="#7E22CE" opacity="0.69"/><circle cx="67" cy="71" r="1.96" fill="#7E22CE" opacity="0.62"/><circle cx="67" cy="79" r="0.8" fill="#7E22CE" opacity="0.30"/><circle cx="67" cy="87" r="1.65" fill="#7E22CE" opacity="0.54"/><circle cx="67" cy="95" r="2.34" fill="#7E22CE" opacity="0.73"/><circle cx="67" cy="103" r="2.4" fill="#7E22CE" opacity="0.74"/><circle cx="67" cy="111" r="1.9" fill="#7E22CE" opacity="0.61"/><circle cx="67" cy="119" r="0.9" fill="#7E22CE" opacity="0.33"/><circle cx="67" cy="127" r="1.5" fill="#7E22CE" opacity="0.49"/><circle cx="67" cy="135" r="2.53" fill="#7E22CE" opacity="0.78"/><circle cx="67" cy="143" r="0.84" fill="#7E22CE" opacity="0.31"/><circle cx="74" cy="63" r="2.35" fill="#7E22CE" opacity="0.73"/><circle cx="74" cy="71" r="0.81" fill="#7E22CE" opacity="0.30"/><circle cx="74" cy="79" r="2.33" fill="#7E22CE" opacity="0.72"/><circle cx="74" cy="87" r="2.23" fill="#7E22CE" opacity="0.70"/><circle cx="74" cy="95" r="1.35" fill="#7E22CE" opacity="0.45"/><circle cx="74" cy="103" r="1.25" fill="#7E22CE" opacity="0.42"/><circle cx="74" cy="111" r="1.96" fill="#7E22CE" opacity="0.62"/><circle cx="74" cy="119" r="2.56" fill="#7E22CE" opacity="0.79"/><circle cx="74" cy="127" r="1.02" fill="#7E22CE" opacity="0.36"/><circle cx="74" cy="135" r="1.84" fill="#7E22CE" opacity="0.59"/><circle cx="74" cy="143" r="1.98" fill="#7E22CE" opacity="0.63"/><circle cx="81" cy="63" r="1.16" fill="#7E22CE" opacity="0.40"/><circle cx="81" cy="71" r="1.94" fill="#7E22CE" opacity="0.62"/><circle cx="81" cy="79" r="1.99" fill="#7E22CE" opacity="0.63"/><circle cx="81" cy="87" r="0.82" fill="#7E22CE" opacity="0.31"/><circle cx="81" cy="95" r="1.7" fill="#7E22CE" opacity="0.55"/><circle cx="81" cy="103" r="1.84" fill="#7E22CE" opacity="0.59"/><circle cx="81" cy="111" r="0.98" fill="#7E22CE" opacity="0.35"/><circle cx="81" cy="119" r="1.48" fill="#7E22CE" opacity="0.49"/><circle cx="81" cy="127" r="2.42" fill="#7E22CE" opacity="0.75"/><circle cx="81" cy="135" r="0.82" fill="#7E22CE" opacity="0.31"/><circle cx="81" cy="143" r="2.6" fill="#7E22CE" opacity="0.80"/><circle cx="88" cy="63" r="0.81" fill="#7E22CE" opacity="0.30"/><circle cx="88" cy="71" r="2.6" fill="#7E22CE" opacity="0.80"/><circle cx="88" cy="79" r="0.83" fill="#7E22CE" opacity="0.31"/><circle cx="88" cy="87" r="2.33" fill="#7E22CE" opacity="0.73"/><circle cx="88" cy="95" r="2.12" fill="#7E22CE" opacity="0.67"/><circle cx="88" cy="103" r="1.91" fill="#7E22CE" opacity="0.61"/><circle cx="88" cy="111" r="2.58" fill="#7E22CE" opacity="0.79"/><circle cx="88" cy="119" r="0.88" fill="#7E22CE" opacity="0.32"/><circle cx="88" cy="127" r="2.36" fill="#7E22CE" opacity="0.73"/><circle cx="88" cy="135" r="1.15" fill="#7E22CE" opacity="0.40"/><circle cx="88" cy="143" r="2.19" fill="#7E22CE" opacity="0.69"/><circle cx="95" cy="63" r="1.06" fill="#7E22CE" opacity="0.37"/><circle cx="95" cy="71" r="2.33" fill="#7E22CE" opacity="0.73"/><circle cx="95" cy="79" r="1.07" fill="#7E22CE" opacity="0.37"/><circle cx="95" cy="87" r="2.38" fill="#7E22CE" opacity="0.74"/><circle cx="95" cy="95" r="0.84" fill="#7E22CE" opacity="0.31"/><circle cx="95" cy="103" r="1.08" fill="#7E22CE" opacity="0.38"/><circle cx="95" cy="111" r="1.81" fill="#7E22CE" opacity="0.58"/><circle cx="95" cy="119" r="1.7" fill="#7E22CE" opacity="0.55"/><circle cx="95" cy="127" r="1.69" fill="#7E22CE" opacity="0.55"/><circle cx="95" cy="135" r="1.7" fill="#7E22CE" opacity="0.55"/><circle cx="95" cy="143" r="1.73" fill="#7E22CE" opacity="0.56"/><circle cx="102" cy="63" r="1.13" fill="#7E22CE" opacity="0.39"/><circle cx="102" cy="71" r="2.23" fill="#7E22CE" opacity="0.70"/><circle cx="102" cy="79" r="1.2" fill="#7E22CE" opacity="0.41"/><circle cx="102" cy="87" r="2.17" fill="#7E22CE" opacity="0.68"/><circle cx="102" cy="95" r="1.2" fill="#7E22CE" opacity="0.41"/><circle cx="102" cy="103" r="1.82" fill="#7E22CE" opacity="0.58"/><circle cx="102" cy="111" r="1.49" fill="#7E22CE" opacity="0.49"/><circle cx="102" cy="119" r="1.89" fill="#7E22CE" opacity="0.60"/><circle cx="102" cy="127" r="1.55" fill="#7E22CE" opacity="0.51"/><circle cx="102" cy="135" r="1.8" fill="#7E22CE" opacity="0.58"/><circle cx="102" cy="143" r="1.65" fill="#7E22CE" opacity="0.53"/><circle cx="109" cy="63" r="0.9" fill="#7E22CE" opacity="0.33"/><circle cx="109" cy="71" r="2.52" fill="#7E22CE" opacity="0.78"/><circle cx="109" cy="79" r="0.84" fill="#7E22CE" opacity="0.31"/><circle cx="109" cy="87" r="2.6" fill="#7E22CE" opacity="0.80"/><circle cx="109" cy="95" r="1.2" fill="#7E22CE" opacity="0.41"/><circle cx="109" cy="103" r="0.99" fill="#7E22CE" opacity="0.35"/><circle cx="109" cy="111" r="2.44" fill="#7E22CE" opacity="0.76"/><circle cx="109" cy="119" r="1.23" fill="#7E22CE" opacity="0.42"/><circle cx="109" cy="127" r="2.04" fill="#7E22CE" opacity="0.64"/><circle cx="109" cy="135" r="1.42" fill="#7E22CE" opacity="0.47"/><circle cx="109" cy="143" r="1.96" fill="#7E22CE" opacity="0.62"/><circle cx="116" cy="63" r="0.88" fill="#7E22CE" opacity="0.32"/><circle cx="116" cy="71" r="2.4" fill="#7E22CE" opacity="0.74"/><circle cx="116" cy="79" r="1.32" fill="#7E22CE" opacity="0.44"/><circle cx="116" cy="87" r="1.36" fill="#7E22CE" opacity="0.45"/><circle cx="116" cy="95" r="2.52" fill="#7E22CE" opacity="0.78"/><circle cx="116" cy="103" r="2.58" fill="#7E22CE" opacity="0.79"/><circle cx="116" cy="111" r="1.78" fill="#7E22CE" opacity="0.57"/><circle cx="116" cy="119" r="0.91" fill="#7E22CE" opacity="0.33"/><circle cx="116" cy="127" r="2.6" fill="#7E22CE" opacity="0.80"/><circle cx="116" cy="135" r="0.84" fill="#7E22CE" opacity="0.31"/><circle cx="116" cy="143" r="2.49" fill="#7E22CE" opacity="0.77"/><circle cx="123" cy="63" r="1.83" fill="#7E22CE" opacity="0.59"/><circle cx="123" cy="71" r="1.14" fill="#7E22CE" opacity="0.40"/><circle cx="123" cy="79" r="2.59" fill="#7E22CE" opacity="0.80"/><circle cx="123" cy="87" r="1.33" fill="#7E22CE" opacity="0.45"/><circle cx="123" cy="95" r="0.8" fill="#7E22CE" opacity="0.30"/><circle cx="123" cy="103" r="0.81" fill="#7E22CE" opacity="0.30"/><circle cx="123" cy="111" r="1.06" fill="#7E22CE" opacity="0.37"/><circle cx="123" cy="119" r="2.43" fill="#7E22CE" opacity="0.75"/><circle cx="123" cy="127" r="1.65" fill="#7E22CE" opacity="0.54"/><circle cx="123" cy="135" r="1.25" fill="#7E22CE" opacity="0.42"/><circle cx="123" cy="143" r="2.41" fill="#7E22CE" opacity="0.75"/><circle cx="130" cy="63" r="2.58" fill="#7E22CE" opacity="0.79"/><circle cx="130" cy="71" r="1.2" fill="#7E22CE" opacity="0.41"/><circle cx="130" cy="79" r="1.26" fill="#7E22CE" opacity="0.43"/><circle cx="130" cy="87" r="2.48" fill="#7E22CE" opacity="0.77"/><circle cx="130" cy="95" r="2.53" fill="#7E22CE" opacity="0.78"/><circle cx="130" cy="103" r="2.49" fill="#7E22CE" opacity="0.77"/><circle cx="130" cy="111" r="2.58" fill="#7E22CE" opacity="0.79"/><circle cx="130" cy="119" r="1.64" fill="#7E22CE" opacity="0.53"/><circle cx="130" cy="127" r="0.88" fill="#7E22CE" opacity="0.32"/><circle cx="130" cy="135" r="2.53" fill="#7E22CE" opacity="0.78"/><circle cx="130" cy="143" r="1.23" fill="#7E22CE" opacity="0.42"/><circle cx="137" cy="63" r="1.26" fill="#7E22CE" opacity="0.43"/><circle cx="137" cy="71" r="2.6" fill="#7E22CE" opacity="0.80"/><circle cx="137" cy="79" r="1.47" fill="#7E22CE" opacity="0.49"/><circle cx="137" cy="87" r="0.8" fill="#7E22CE" opacity="0.30"/><circle cx="137" cy="95" r="1.06" fill="#7E22CE" opacity="0.37"/><circle cx="137" cy="103" r="1.11" fill="#7E22CE" opacity="0.39"/><circle cx="137" cy="111" r="0.83" fill="#7E22CE" opacity="0.31"/><circle cx="137" cy="119" r="1.16" fill="#7E22CE" opacity="0.40"/><circle cx="137" cy="127" r="2.48" fill="#7E22CE" opacity="0.77"/><circle cx="137" cy="135" r="1.74" fill="#7E22CE" opacity="0.56"/><circle cx="137" cy="143" r="1.01" fill="#7E22CE" opacity="0.36"/></g>
<g fill="none" stroke-linecap="round" stroke-linejoin="round">
<path d="M65 90 Q60 60 95 55 Q130 50 140 80 Q155 100 140 130 Q130 155 95 150 Q60 145 65 115 Q55 102 65 90 Z" stroke="#FACC15" stroke-width="3"/>

<g stroke="#FACC15" stroke-width="1.8" opacity="0.9">
<path d="M95 55 L92 90 L75 100 L88 120 L85 150"/>
<path d="M140 80 L120 95 L92 90"/>
<path d="M75 100 L65 115" stroke-width="1.4" opacity="0.7"/>
<path d="M120 95 L140 130" stroke-width="1.4" opacity="0.7"/>
<path d="M88 120 L120 130" stroke-width="1.4" opacity="0.7"/>
</g>
<g fill="#FACC15">
<circle cx="92" cy="90" r="2.5"/>
<circle cx="120" cy="95" r="2.5"/>
<circle cx="88" cy="120" r="2.5"/>
<circle cx="75" cy="100" r="2"/>
<circle cx="120" cy="130" r="2"/>
</g>
</g>
<text x="100" y="190" text-anchor="middle" font-family="Helvetica, Arial, sans-serif" font-size="11" font-weight="700" letter-spacing="2" fill="#FACC15">FRACTURED · FIELD</text>
</svg>