<svg xmlns="http://www.w3.org/2000/svg" viewBox="0 0 200 200" width="200" height="200">
<rect width="200" height="200" fill="#FAFAFA"/>
<defs><clipPath id="clpR05"><path d="M100 52 C72 50 52 72 58 96 C46 110 56 132 76 132 C76 146 88 154 100 146 L106 158 L112 146 C132 152 148 132 138 110 C152 88 134 58 105 56 Z"/></clipPath></defs>
<g clip-path="url(#clpR05)"><circle cx="73" cy="69" r="0.98" fill="#C026D3" opacity="0.41"/><circle cx="73" cy="78" r="1.64" fill="#C026D3" opacity="0.65"/><circle cx="73" cy="87" r="2.09" fill="#C026D3" opacity="0.81"/><circle cx="73" cy="96" r="1.45" fill="#C026D3" opacity="0.58"/><circle cx="73" cy="105" r="1.49" fill="#C026D3" opacity="0.60"/><circle cx="73" cy="114" r="2.14" fill="#C026D3" opacity="0.83"/><circle cx="73" cy="123" r="1.46" fill="#C026D3" opacity="0.59"/><circle cx="73" cy="132" r="1.15" fill="#C026D3" opacity="0.47"/><circle cx="73" cy="141" r="1.99" fill="#C026D3" opacity="0.78"/><circle cx="81" cy="69" r="1.22" fill="#C026D3" opacity="0.50"/><circle cx="81" cy="78" r="1.91" fill="#C026D3" opacity="0.75"/><circle cx="81" cy="87" r="0.82" fill="#C026D3" opacity="0.36"/><circle cx="81" cy="96" r="1.56" fill="#C026D3" opacity="0.62"/><circle cx="81" cy="105" r="1.5" fill="#C026D3" opacity="0.60"/><circle cx="81" cy="114" r="0.8" fill="#C026D3" opacity="0.35"/><circle cx="81" cy="123" r="2.06" fill="#C026D3" opacity="0.80"/><circle cx="81" cy="132" r="1.02" fill="#C026D3" opacity="0.43"/><circle cx="81" cy="141" r="2" fill="#C026D3" opacity="0.78"/><circle cx="89" cy="69" r="2.08" fill="#C026D3" opacity="0.81"/><circle cx="89" cy="78" r="0.86" fill="#C026D3" opacity="0.37"/><circle cx="89" cy="87" r="2.1" fill="#C026D3" opacity="0.82"/><circle cx="89" cy="96" r="1.48" fill="#C026D3" opacity="0.59"/><circle cx="89" cy="105" r="1.58" fill="#C026D3" opacity="0.63"/><circle cx="89" cy="114" r="1.97" fill="#C026D3" opacity="0.77"/><circle cx="89" cy="123" r="1" fill="#C026D3" opacity="0.42"/><circle cx="89" cy="132" r="1.9" fill="#C026D3" opacity="0.74"/><circle cx="89" cy="141" r="1.29" fill="#C026D3" opacity="0.53"/><circle cx="97" cy="69" r="2.2" fill="#C026D3" opacity="0.85"/><circle cx="97" cy="78" r="0.9" fill="#C026D3" opacity="0.39"/><circle cx="97" cy="87" r="1.91" fill="#C026D3" opacity="0.75"/><circle cx="97" cy="96" r="1.21" fill="#C026D3" opacity="0.50"/><circle cx="97" cy="105" r="1.02" fill="#C026D3" opacity="0.43"/><circle cx="97" cy="114" r="2.09" fill="#C026D3" opacity="0.81"/><circle cx="97" cy="123" r="0.81" fill="#C026D3" opacity="0.35"/><circle cx="97" cy="132" r="2.17" fill="#C026D3" opacity="0.84"/><circle cx="97" cy="141" r="0.98" fill="#C026D3" opacity="0.41"/><circle cx="105" cy="69" r="2.2" fill="#C026D3" opacity="0.85"/><circle cx="105" cy="78" r="0.86" fill="#C026D3" opacity="0.37"/><circle cx="105" cy="87" r="2.03" fill="#C026D3" opacity="0.79"/><circle cx="105" cy="96" r="0.91" fill="#C026D3" opacity="0.39"/><circle cx="105" cy="105" r="0.83" fill="#C026D3" opacity="0.36"/><circle cx="105" cy="114" r="2.16" fill="#C026D3" opacity="0.84"/><circle cx="105" cy="123" r="0.8" fill="#C026D3" opacity="0.35"/><circle cx="105" cy="132" r="2.15" fill="#C026D3" opacity="0.83"/><circle cx="105" cy="141" r="1.02" fill="#C026D3" opacity="0.43"/><circle cx="113" cy="69" r="1.95" fill="#C026D3" opacity="0.76"/><circle cx="113" cy="78" r="1.01" fill="#C026D3" opacity="0.43"/><circle cx="113" cy="87" r="1.84" fill="#C026D3" opacity="0.72"/><circle cx="113" cy="96" r="1.97" fill="#C026D3" opacity="0.77"/><circle cx="113" cy="105" r="2.03" fill="#C026D3" opacity="0.79"/><circle cx="113" cy="114" r="1.65" fill="#C026D3" opacity="0.65"/><circle cx="113" cy="123" r="1.21" fill="#C026D3" opacity="0.50"/><circle cx="113" cy="132" r="1.72" fill="#C026D3" opacity="0.68"/><circle cx="113" cy="141" r="1.45" fill="#C026D3" opacity="0.58"/><circle cx="121" cy="69" r="0.98" fill="#C026D3" opacity="0.41"/><circle cx="121" cy="78" r="2.14" fill="#C026D3" opacity="0.83"/><circle cx="121" cy="87" r="0.87" fill="#C026D3" opacity="0.38"/><circle cx="121" cy="96" r="1.05" fill="#C026D3" opacity="0.44"/><circle cx="121" cy="105" r="1.01" fill="#C026D3" opacity="0.42"/><circle cx="121" cy="114" r="0.95" fill="#C026D3" opacity="0.40"/><circle cx="121" cy="123" r="2.2" fill="#C026D3" opacity="0.85"/><circle cx="121" cy="132" r="0.85" fill="#C026D3" opacity="0.37"/><circle cx="121" cy="141" r="2.14" fill="#C026D3" opacity="0.83"/><circle cx="129" cy="69" r="1.29" fill="#C026D3" opacity="0.53"/><circle cx="129" cy="78" r="1.21" fill="#C026D3" opacity="0.50"/><circle cx="129" cy="87" r="2.19" fill="#C026D3" opacity="0.85"/><circle cx="129" cy="96" r="1.96" fill="#C026D3" opacity="0.76"/><circle cx="129" cy="105" r="1.99" fill="#C026D3" opacity="0.78"/><circle cx="129" cy="114" r="2.17" fill="#C026D3" opacity="0.84"/><circle cx="129" cy="123" r="1.07" fill="#C026D3" opacity="0.45"/><circle cx="129" cy="132" r="1.5" fill="#C026D3" opacity="0.60"/><circle cx="129" cy="141" r="1.73" fill="#C026D3" opacity="0.68"/><circle cx="137" cy="69" r="2.13" fill="#C026D3" opacity="0.82"/><circle cx="137" cy="78" r="1.46" fill="#C026D3" opacity="0.58"/><circle cx="137" cy="87" r="0.8" fill="#C026D3" opacity="0.35"/><circle cx="137" cy="96" r="1.02" fill="#C026D3" opacity="0.43"/><circle cx="137" cy="105" r="1" fill="#C026D3" opacity="0.42"/><circle cx="137" cy="114" r="0.8" fill="#C026D3" opacity="0.35"/><circle cx="137" cy="123" r="1.6" fill="#C026D3" opacity="0.64"/><circle cx="137" cy="132" r="2.03" fill="#C026D3" opacity="0.79"/><circle cx="137" cy="141" r="0.8" fill="#C026D3" opacity="0.35"/></g>
<g stroke="#1a1a1a" stroke-width="3.2" fill="none" stroke-linecap="round"><path d="M100 52 C72 50 52 72 58 96 C46 110 56 132 76 132 C76 146 88 154 100 146 L106 158 L112 146 C132 152 148 132 138 110 C152 88 134 58 105 56 Z" stroke-linejoin="round"/><path d="M86 82 C100 72 120 80 116 96 C100 92 84 102 94 116 C112 116 122 104 116 92" stroke-linejoin="round" fill="none"/></g>
<text x="100" y="190" text-anchor="middle" font-family="Helvetica, Arial, sans-serif" font-size="11" font-weight="700" letter-spacing="2" fill="#C026D3">SQUIGGLE · QUANTA</text>
</svg>