<svg xmlns="http://www.w3.org/2000/svg" viewBox="0 0 200 200" width="200" height="200">
<rect width="200" height="200" fill="#FAFAFA"/>
<defs>
<linearGradient id="gR18" x1="0" y1="0" x2="1" y2="1">
<stop offset="0" stop-color="#0EA5E9"/><stop offset="1" stop-color="#0F766E"/>
</linearGradient>
</defs>
<g stroke="url(#gR18)" stroke-width="3.2" fill="none" stroke-linecap="round">
<path d="M100 58 C82 56 66 70 70 92 C58 102 64 124 80 130 C80 142 96 146 100 138" fill="none"/><path d="M100 58 C118 56 134 70 130 92 C142 102 136 124 120 130 C120 142 104 146 100 138" fill="none"/><path d="M78 80 Q88 92 78 102 Q68 112 78 124" fill="none"/><path d="M122 80 Q112 92 122 102 Q132 112 122 124" fill="none"/>
</g>
<g stroke="#FACC15" stroke-width="1.6" opacity="0.95" fill="none" stroke-linecap="round" stroke-linejoin="round">
<path d="M100 58 L96 78 L82 92 L94 108 L86 128 L96 142"/>
<path d="M100 58 L106 80 L120 96 L108 112 L116 132 L104 142"/>
<path d="M82 92 L96 108" stroke-width="1.2" opacity="0.7"/>
</g>
<g fill="#FACC15">
<circle cx="96" cy="78" r="2"/>
<circle cx="82" cy="92" r="2"/>
<circle cx="94" cy="108" r="2"/>
<circle cx="106" cy="80" r="2"/>
<circle cx="120" cy="96" r="2"/>
<circle cx="108" cy="112" r="2"/>
</g>
<text x="100" y="190" text-anchor="middle" font-family="Helvetica, Arial, sans-serif" font-size="11" font-weight="700" letter-spacing="2" fill="#FACC15">GILDED · BRAIN</text>
</svg>