<svg xmlns="http://www.w3.org/2000/svg" viewBox="0 0 200 200" width="200" height="200">
<rect width="200" height="200" fill="#FAFAFA"/>
<defs>
<linearGradient id="gR11L" x1="0" x2="1" y1="0" y2="0">
<stop offset="0" stop-color="#06B6D4"/><stop offset="1" stop-color="#3B82F6"/>
</linearGradient>
<linearGradient id="gR11R" x1="1" x2="0" y1="0" y2="0">
<stop offset="0" stop-color="#A855F7"/><stop offset="1" stop-color="#3B82F6"/>
</linearGradient>
</defs>
<g stroke="url(#gR11L)" stroke-width="3.2" fill="none" stroke-linecap="round"><path d="M100 58 C82 56 66 70 70 92 C58 102 64 124 80 130 C80 142 96 146 100 138" fill="none"/><path d="M78 80 Q88 92 78 102 Q68 112 78 124" fill="none"/></g>
<g stroke="url(#gR11R)" stroke-width="3.2" fill="none" stroke-linecap="round"><path d="M100 58 C118 56 134 70 130 92 C142 102 136 124 120 130 C120 142 104 146 100 138" fill="none"/><path d="M122 80 Q112 92 122 102 Q132 112 122 124" fill="none"/></g>
<line x1="100" y1="56" x2="100" y2="142" stroke="#fff" stroke-width="1.5" stroke-dasharray="3 4" opacity="0.6"/>
<text x="100" y="190" text-anchor="middle" font-family="Helvetica, Arial, sans-serif" font-size="11" font-weight="700" letter-spacing="2" fill="#0EA5E9">GRADIENT · MIRROR</text>
</svg>