<svg xmlns="http://www.w3.org/2000/svg" viewBox="0 0 200 200" width="200" height="200">
<rect width="200" height="200" fill="#FAFAFA"/>
<circle cx="50" cy="100" r="2.55" fill="#7E22CE" opacity="0.74"/><circle cx="55" cy="82" r="3.05" fill="#7E22CE" opacity="0.87"/><circle cx="55" cy="91" r="3.07" fill="#7E22CE" opacity="0.88"/><circle cx="55" cy="100" r="2.83" fill="#7E22CE" opacity="0.81"/><circle cx="55" cy="109" r="3.07" fill="#7E22CE" opacity="0.88"/><circle cx="55" cy="118" r="3.05" fill="#7E22CE" opacity="0.87"/><circle cx="60" cy="73" r="3.09" fill="#7E22CE" opacity="0.88"/><circle cx="60" cy="82" r="2.39" fill="#7E22CE" opacity="0.70"/><circle cx="60" cy="91" r="1.25" fill="#7E22CE" opacity="0.41"/><circle cx="60" cy="100" r="1.05" fill="#7E22CE" opacity="0.36"/><circle cx="60" cy="109" r="1.25" fill="#7E22CE" opacity="0.41"/><circle cx="60" cy="118" r="2.39" fill="#7E22CE" opacity="0.70"/><circle cx="60" cy="127" r="3.09" fill="#7E22CE" opacity="0.88"/><circle cx="65" cy="73" r="2.53" fill="#7E22CE" opacity="0.74"/><circle cx="65" cy="82" r="1" fill="#7E22CE" opacity="0.35"/><circle cx="65" cy="91" r="1.76" fill="#7E22CE" opacity="0.54"/><circle cx="65" cy="100" r="2.25" fill="#7E22CE" opacity="0.67"/><circle cx="65" cy="109" r="1.76" fill="#7E22CE" opacity="0.54"/><circle cx="65" cy="118" r="1" fill="#7E22CE" opacity="0.35"/><circle cx="65" cy="127" r="2.53" fill="#7E22CE" opacity="0.74"/><circle cx="70" cy="64" r="3.19" fill="#7E22CE" opacity="0.91"/><circle cx="70" cy="73" r="1.1" fill="#7E22CE" opacity="0.38"/><circle cx="70" cy="82" r="2.26" fill="#7E22CE" opacity="0.67"/><circle cx="70" cy="91" r="3.2" fill="#7E22CE" opacity="0.91"/><circle cx="70" cy="100" r="3.03" fill="#7E22CE" opacity="0.87"/><circle cx="70" cy="109" r="3.2" fill="#7E22CE" opacity="0.91"/><circle cx="70" cy="118" r="2.26" fill="#7E22CE" opacity="0.67"/><circle cx="70" cy="127" r="1.1" fill="#7E22CE" opacity="0.38"/><circle cx="70" cy="136" r="3.19" fill="#7E22CE" opacity="0.91"/><circle cx="75" cy="64" r="2.38" fill="#7E22CE" opacity="0.70"/><circle cx="75" cy="73" r="1.5" fill="#7E22CE" opacity="0.48"/><circle cx="75" cy="82" r="3.17" fill="#7E22CE" opacity="0.90"/><circle cx="75" cy="91" r="1.7" fill="#7E22CE" opacity="0.53"/><circle cx="75" cy="100" r="1.18" fill="#7E22CE" opacity="0.40"/><circle cx="75" cy="109" r="1.7" fill="#7E22CE" opacity="0.53"/><circle cx="75" cy="118" r="3.17" fill="#7E22CE" opacity="0.90"/><circle cx="75" cy="127" r="1.5" fill="#7E22CE" opacity="0.48"/><circle cx="75" cy="136" r="2.38" fill="#7E22CE" opacity="0.70"/><circle cx="80" cy="55" r="2.83" fill="#7E22CE" opacity="0.82"/><circle cx="80" cy="64" r="1.31" fill="#7E22CE" opacity="0.43"/><circle cx="80" cy="73" r="2.81" fill="#7E22CE" opacity="0.81"/><circle cx="80" cy="82" r="1.85" fill="#7E22CE" opacity="0.57"/><circle cx="80" cy="91" r="1.23" fill="#7E22CE" opacity="0.41"/><circle cx="80" cy="100" r="1.94" fill="#7E22CE" opacity="0.59"/><circle cx="80" cy="109" r="1.23" fill="#7E22CE" opacity="0.41"/><circle cx="80" cy="118" r="1.85" fill="#7E22CE" opacity="0.57"/><circle cx="80" cy="127" r="2.81" fill="#7E22CE" opacity="0.81"/><circle cx="80" cy="136" r="1.31" fill="#7E22CE" opacity="0.43"/><circle cx="80" cy="145" r="2.83" fill="#7E22CE" opacity="0.82"/><circle cx="85" cy="55" r="3.19" fill="#7E22CE" opacity="0.91"/><circle cx="85" cy="64" r="1.01" fill="#7E22CE" opacity="0.35"/><circle cx="85" cy="73" r="3.18" fill="#7E22CE" opacity="0.90"/><circle cx="85" cy="82" r="1" fill="#7E22CE" opacity="0.35"/><circle cx="85" cy="91" r="2.93" fill="#7E22CE" opacity="0.84"/><circle cx="85" cy="100" r="3.16" fill="#7E22CE" opacity="0.90"/><circle cx="85" cy="109" r="2.93" fill="#7E22CE" opacity="0.84"/><circle cx="85" cy="118" r="1" fill="#7E22CE" opacity="0.35"/><circle cx="85" cy="127" r="3.18" fill="#7E22CE" opacity="0.90"/><circle cx="85" cy="136" r="1.01" fill="#7E22CE" opacity="0.35"/><circle cx="85" cy="145" r="3.19" fill="#7E22CE" opacity="0.91"/><circle cx="90" cy="55" r="3.11" fill="#7E22CE" opacity="0.89"/><circle cx="90" cy="64" r="1.3" fill="#7E22CE" opacity="0.43"/><circle cx="90" cy="73" r="2.65" fill="#7E22CE" opacity="0.77"/><circle cx="90" cy="82" r="1.69" fill="#7E22CE" opacity="0.53"/><circle cx="90" cy="91" r="2.78" fill="#7E22CE" opacity="0.80"/><circle cx="90" cy="100" r="1.38" fill="#7E22CE" opacity="0.45"/><circle cx="90" cy="109" r="2.78" fill="#7E22CE" opacity="0.80"/><circle cx="90" cy="118" r="1.69" fill="#7E22CE" opacity="0.53"/><circle cx="90" cy="127" r="2.65" fill="#7E22CE" opacity="0.77"/><circle cx="90" cy="136" r="1.3" fill="#7E22CE" opacity="0.43"/><circle cx="90" cy="145" r="3.11" fill="#7E22CE" opacity="0.89"/><circle cx="95" cy="55" r="2.91" fill="#7E22CE" opacity="0.84"/><circle cx="95" cy="64" r="1.67" fill="#7E22CE" opacity="0.52"/><circle cx="95" cy="73" r="2.09" fill="#7E22CE" opacity="0.63"/><circle cx="95" cy="82" r="2.51" fill="#7E22CE" opacity="0.73"/><circle cx="95" cy="91" r="1.48" fill="#7E22CE" opacity="0.47"/><circle cx="95" cy="100" r="1.64" fill="#7E22CE" opacity="0.51"/><circle cx="95" cy="109" r="1.48" fill="#7E22CE" opacity="0.47"/><circle cx="95" cy="118" r="2.51" fill="#7E22CE" opacity="0.73"/><circle cx="95" cy="127" r="2.09" fill="#7E22CE" opacity="0.63"/><circle cx="95" cy="136" r="1.67" fill="#7E22CE" opacity="0.52"/><circle cx="95" cy="145" r="2.91" fill="#7E22CE" opacity="0.84"/>
<g stroke="#06B6D4" stroke-width="1.4" fill="none" opacity="0.55">
<line x1="108" y1="60" x2="142" y2="78"/>
<line x1="142" y1="78" x2="148" y2="115"/>
<line x1="148" y1="115" x2="130" y2="142"/>
<line x1="130" y1="142" x2="110" y2="138"/>
<line x1="108" y1="60" x2="125" y2="100"/>
<line x1="142" y1="78" x2="125" y2="100"/>
<line x1="148" y1="115" x2="125" y2="100"/>
<line x1="130" y1="142" x2="125" y2="100"/>
<line x1="110" y1="138" x2="125" y2="100"/>
</g>
<g fill="#06B6D4">
<circle cx="108" cy="60" r="3"/><circle cx="142" cy="78" r="3"/>
<circle cx="148" cy="115" r="3"/><circle cx="130" cy="142" r="3"/>
<circle cx="110" cy="138" r="3"/>
<circle cx="125" cy="100" r="5"/>
<circle cx="125" cy="100" r="9" fill="none" stroke="#06B6D4" stroke-width="0.8" stroke-dasharray="2 2" opacity="0.6"/>
</g>
<line x1="100" y1="48" x2="100" y2="156" stroke="#fff" stroke-width="1" stroke-dasharray="2 3" opacity="0.5"/>
<text x="100" y="190" text-anchor="middle" font-family="Helvetica, Arial, sans-serif" font-size="11" font-weight="700" letter-spacing="2" fill="#06B6D4">TRINITY · MIND</text>
</svg>