<svg xmlns="http://www.w3.org/2000/svg" viewBox="0 0 200 200" width="200" height="200">
<rect width="200" height="200" fill="#FAFAFA"/>
<g stroke="#0EA5E9" stroke-width="2.2" fill="none" stroke-linecap="round">
<path d="M95 56 C72 56 58 76 62 100 C52 110 60 132 80 138 C84 150 95 150 95 138 Z" stroke-width="3"/>
<path d="M82 78 Q92 90 82 102 Q72 114 82 126" opacity="0.7"/>
<path d="M70 105 Q80 110 75 122" opacity="0.5" stroke-width="1.5"/>
</g>
<g>
<line x1="105" y1="56" x2="130" y2="70" stroke="#F59E0B" stroke-width="1" opacity="0.5"/>
<line x1="130" y1="70" x2="144" y2="100" stroke="#F59E0B" stroke-width="1" opacity="0.5"/>
<line x1="144" y1="100" x2="128" y2="138" stroke="#F59E0B" stroke-width="1" opacity="0.5"/>
<line x1="105" y1="56" x2="115" y2="90" stroke="#F59E0B" stroke-width="1" opacity="0.5"/>
<line x1="115" y1="90" x2="130" y2="70" stroke="#F59E0B" stroke-width="1" opacity="0.5"/>
<line x1="115" y1="90" x2="144" y2="100" stroke="#F59E0B" stroke-width="1" opacity="0.5"/>
<line x1="115" y1="90" x2="115" y2="122" stroke="#F59E0B" stroke-width="1" opacity="0.5"/>
<line x1="115" y1="122" x2="128" y2="138" stroke="#F59E0B" stroke-width="1" opacity="0.5"/>
<circle cx="105" cy="56" r="3" fill="#F59E0B"/><circle cx="105" cy="56" r="5.5" fill="none" stroke="#F59E0B" stroke-width="0.7" opacity="0.4"/><circle cx="130" cy="70" r="3" fill="#F59E0B"/><circle cx="130" cy="70" r="5.5" fill="none" stroke="#F59E0B" stroke-width="0.7" opacity="0.4"/><circle cx="144" cy="100" r="3.5" fill="#F59E0B"/><circle cx="144" cy="100" r="6" fill="none" stroke="#F59E0B" stroke-width="0.7" opacity="0.4"/><circle cx="128" cy="138" r="3" fill="#F59E0B"/><circle cx="128" cy="138" r="5.5" fill="none" stroke="#F59E0B" stroke-width="0.7" opacity="0.4"/><circle cx="115" cy="90" r="2.5" fill="#F59E0B"/><circle cx="115" cy="90" r="5" fill="none" stroke="#F59E0B" stroke-width="0.7" opacity="0.4"/><circle cx="115" cy="122" r="2.5" fill="#F59E0B"/><circle cx="115" cy="122" r="5" fill="none" stroke="#F59E0B" stroke-width="0.7" opacity="0.4"/>
</g>
<line x1="100" y1="48" x2="100" y2="156" stroke="#8b909d" stroke-width="1" stroke-dasharray="2 3" opacity="0.5"/>
<text x="100" y="190" text-anchor="middle" font-family="Helvetica, Arial, sans-serif" font-size="11" font-weight="700" letter-spacing="2" fill="#F59E0B">MIRROR · STARS</text>
</svg>