<svg xmlns="http://www.w3.org/2000/svg" viewBox="0 0 200 200" width="200" height="200">
<rect width="200" height="200" fill="#FAFAFA"/>
<circle cx="40" cy="40" r="1" fill="#0EA5E9" opacity="0.68"/><circle cx="160" cy="40" r="1.5" fill="#0EA5E9" opacity="0.51"/><circle cx="35" cy="90" r="1" fill="#0EA5E9" opacity="0.67"/><circle cx="170" cy="90" r="1" fill="#0EA5E9" opacity="0.73"/><circle cx="45" cy="160" r="1.5" fill="#0EA5E9" opacity="0.55"/><circle cx="155" cy="160" r="1.5" fill="#0EA5E9" opacity="0.66"/><circle cx="170" cy="135" r="1" fill="#0EA5E9" opacity="0.76"/><circle cx="30" cy="135" r="1.5" fill="#0EA5E9" opacity="0.71"/><circle cx="175" cy="75" r="1" fill="#0EA5E9" opacity="0.46"/><circle cx="25" cy="60" r="1" fill="#0EA5E9" opacity="0.51"/><line x1="100" y1="56" x2="70" y2="70" stroke="#C026D3" stroke-width="1.4" opacity="0.5"/><line x1="100" y1="56" x2="130" y2="70" stroke="#C026D3" stroke-width="1.4" opacity="0.5"/><line x1="70" y1="70" x2="56" y2="100" stroke="#C026D3" stroke-width="1.4" opacity="0.5"/><line x1="130" y1="70" x2="144" y2="100" stroke="#C026D3" stroke-width="1.4" opacity="0.5"/><line x1="56" y1="100" x2="72" y2="138" stroke="#C026D3" stroke-width="1.4" opacity="0.5"/><line x1="144" y1="100" x2="128" y2="138" stroke="#C026D3" stroke-width="1.4" opacity="0.5"/><line x1="72" y1="138" x2="128" y2="138" stroke="#C026D3" stroke-width="1.4" opacity="0.5"/><line x1="100" y1="100" x2="100" y2="56" stroke="#C026D3" stroke-width="1.4" opacity="0.5"/><line x1="100" y1="100" x2="70" y2="70" stroke="#C026D3" stroke-width="1.4" opacity="0.5"/><line x1="100" y1="100" x2="130" y2="70" stroke="#C026D3" stroke-width="1.4" opacity="0.5"/><line x1="100" y1="100" x2="56" y2="100" stroke="#C026D3" stroke-width="1.4" opacity="0.5"/><line x1="100" y1="100" x2="144" y2="100" stroke="#C026D3" stroke-width="1.4" opacity="0.5"/><line x1="100" y1="100" x2="72" y2="138" stroke="#C026D3" stroke-width="1.4" opacity="0.5"/><line x1="100" y1="100" x2="128" y2="138" stroke="#C026D3" stroke-width="1.4" opacity="0.5"/><line x1="85" y1="90" x2="70" y2="70" stroke="#C026D3" stroke-width="1.4" opacity="0.5"/><line x1="85" y1="90" x2="56" y2="100" stroke="#C026D3" stroke-width="1.4" opacity="0.5"/><line x1="115" y1="90" x2="130" y2="70" stroke="#C026D3" stroke-width="1.4" opacity="0.5"/><line x1="115" y1="90" x2="144" y2="100" stroke="#C026D3" stroke-width="1.4" opacity="0.5"/><line x1="85" y1="122" x2="72" y2="138" stroke="#C026D3" stroke-width="1.4" opacity="0.5"/><line x1="115" y1="122" x2="128" y2="138" stroke="#C026D3" stroke-width="1.4" opacity="0.5"/><line x1="85" y1="90" x2="115" y2="90" stroke="#C026D3" stroke-width="1.4" opacity="0.5"/><line x1="85" y1="122" x2="115" y2="122" stroke="#C026D3" stroke-width="1.4" opacity="0.5"/><circle cx="100" cy="56" r="4" fill="#C026D3"/><circle cx="70" cy="70" r="4" fill="#C026D3"/><circle cx="130" cy="70" r="4" fill="#C026D3"/><circle cx="56" cy="100" r="4" fill="#C026D3"/><circle cx="144" cy="100" r="4" fill="#C026D3"/><circle cx="72" cy="138" r="4" fill="#C026D3"/><circle cx="128" cy="138" r="4" fill="#C026D3"/><circle cx="100" cy="100" r="6" fill="#C026D3"/><circle cx="100" cy="100" r="11" fill="none" stroke="#C026D3" stroke-width="1" stroke-dasharray="2 3" opacity="0.6"/><circle cx="85" cy="90" r="4" fill="#C026D3"/><circle cx="115" cy="90" r="4" fill="#C026D3"/><circle cx="85" cy="122" r="4" fill="#C026D3"/><circle cx="115" cy="122" r="4" fill="#C026D3"/><line x1="100" y1="56" x2="70" y2="70" stroke="#0EA5E9" stroke-width="1" opacity="0.4"/><line x1="100" y1="56" x2="130" y2="70" stroke="#0EA5E9" stroke-width="1" opacity="0.4"/><line x1="70" y1="70" x2="56" y2="100" stroke="#0EA5E9" stroke-width="1" opacity="0.4"/><line x1="130" y1="70" x2="144" y2="100" stroke="#0EA5E9" stroke-width="1" opacity="0.4"/><line x1="56" y1="100" x2="72" y2="138" stroke="#0EA5E9" stroke-width="1" opacity="0.4"/><line x1="144" y1="100" x2="128" y2="138" stroke="#0EA5E9" stroke-width="1" opacity="0.4"/><line x1="72" y1="138" x2="128" y2="138" stroke="#0EA5E9" stroke-width="1" opacity="0.4"/><line x1="70" y1="70" x2="85" y2="90" stroke="#0EA5E9" stroke-width="1" opacity="0.4"/><line x1="130" y1="70" x2="115" y2="90" stroke="#0EA5E9" stroke-width="1" opacity="0.4"/><line x1="72" y1="138" x2="85" y2="122" stroke="#0EA5E9" stroke-width="1" opacity="0.4"/><line x1="128" y1="138" x2="115" y2="122" stroke="#0EA5E9" stroke-width="1" opacity="0.4"/><line x1="85" y1="90" x2="115" y2="90" stroke="#0EA5E9" stroke-width="1" opacity="0.4"/><line x1="85" y1="122" x2="115" y2="122" stroke="#0EA5E9" stroke-width="1" opacity="0.4"/><circle cx="100" cy="56" r="1.6" fill="#0EA5E9"/><circle cx="100" cy="56" r="6" fill="none" stroke="#0EA5E9" stroke-width="0.8" opacity="0.35"/><circle cx="70" cy="70" r="1.6" fill="#0EA5E9"/><circle cx="70" cy="70" r="6" fill="none" stroke="#0EA5E9" stroke-width="0.8" opacity="0.35"/><circle cx="130" cy="70" r="1.6" fill="#0EA5E9"/><circle cx="130" cy="70" r="6" fill="none" stroke="#0EA5E9" stroke-width="0.8" opacity="0.35"/><circle cx="56" cy="100" r="1.6" fill="#0EA5E9"/><circle cx="56" cy="100" r="6" fill="none" stroke="#0EA5E9" stroke-width="0.8" opacity="0.35"/><circle cx="144" cy="100" r="1.6" fill="#0EA5E9"/><circle cx="144" cy="100" r="6" fill="none" stroke="#0EA5E9" stroke-width="0.8" opacity="0.35"/><circle cx="72" cy="138" r="1.6" fill="#0EA5E9"/><circle cx="72" cy="138" r="6" fill="none" stroke="#0EA5E9" stroke-width="0.8" opacity="0.35"/><circle cx="128" cy="138" r="1.6" fill="#0EA5E9"/><circle cx="128" cy="138" r="6" fill="none" stroke="#0EA5E9" stroke-width="0.8" opacity="0.35"/><circle cx="85" cy="90" r="1.2" fill="#0EA5E9"/><circle cx="85" cy="90" r="5" fill="none" stroke="#0EA5E9" stroke-width="0.8" opacity="0.35"/><circle cx="115" cy="90" r="1.2" fill="#0EA5E9"/><circle cx="115" cy="90" r="5" fill="none" stroke="#0EA5E9" stroke-width="0.8" opacity="0.35"/><circle cx="85" cy="122" r="1.2" fill="#0EA5E9"/><circle cx="85" cy="122" r="5" fill="none" stroke="#0EA5E9" stroke-width="0.8" opacity="0.35"/><circle cx="115" cy="122" r="1.2" fill="#0EA5E9"/><circle cx="115" cy="122" r="5" fill="none" stroke="#0EA5E9" stroke-width="0.8" opacity="0.35"/>
<text x="100" y="190" text-anchor="middle" font-family="Helvetica, Arial, sans-serif" font-size="11" font-weight="700" letter-spacing="2" fill="#C026D3">COSMIC · WEB</text>
</svg>