<svg xmlns="http://www.w3.org/2000/svg" viewBox="0 0 200 200" width="200" height="200">
<rect width="200" height="200" fill="#FAFAFA"/>
<defs>
<linearGradient id="gR21" x1="0" y1="0" x2="1" y2="1">
<stop offset="0" stop-color="#06B6D4"/><stop offset="1" stop-color="#3B82F6"/>
</linearGradient>
</defs>
<g stroke="url(#gR21)" stroke-width="6" fill="none" stroke-linecap="round" opacity="0.35">
<path d="M100 58 C82 56 66 70 70 92 C58 102 64 124 80 130 C80 142 96 146 100 138" fill="none"/><path d="M100 58 C118 56 134 70 130 92 C142 102 136 124 120 130 C120 142 104 146 100 138" fill="none"/><path d="M78 80 Q88 92 78 102 Q68 112 78 124" fill="none"/><path d="M122 80 Q112 92 122 102 Q132 112 122 124" fill="none"/>
</g>
<g stroke="#1a1a1a" stroke-width="2.6" fill="none" stroke-linecap="round" stroke-linejoin="round"><path d="M100 52 C72 50 52 72 58 96 C46 110 56 132 76 132 C76 146 88 154 100 146 L106 158 L112 146 C132 152 148 132 138 110 C152 88 134 58 105 56 Z" stroke-linejoin="round"/><path d="M86 82 C100 72 120 80 116 96 C100 92 84 102 94 116 C112 116 122 104 116 92" stroke-linejoin="round" fill="none"/></g>
<text x="100" y="190" text-anchor="middle" font-family="Helvetica, Arial, sans-serif" font-size="11" font-weight="700" letter-spacing="2" fill="#06B6D4">HYBRID · STYLE</text>
</svg>