<svg xmlns="http://www.w3.org/2000/svg" viewBox="0 0 200 200" width="200" height="200">
<rect width="200" height="200" fill="#FAFAFA"/>
<defs>
<linearGradient id="gR06" x1="0" y1="0" x2="1" y2="1">
<stop offset="0" stop-color="#06B6D4"/><stop offset="1" stop-color="#3B82F6"/>
</linearGradient>
</defs>
<circle cx="54" cy="72" r="1.23" fill="#06B6D4" opacity="0.17"/><circle cx="54" cy="81" r="1.64" fill="#06B6D4" opacity="0.22"/><circle cx="54" cy="90" r="2.93" fill="#06B6D4" opacity="0.36"/><circle cx="54" cy="99" r="3.27" fill="#06B6D4" opacity="0.40"/><circle cx="54" cy="108" r="3.07" fill="#06B6D4" opacity="0.38"/><circle cx="54" cy="117" r="1.99" fill="#06B6D4" opacity="0.26"/><circle cx="54" cy="126" r="1.02" fill="#06B6D4" opacity="0.15"/><circle cx="63" cy="63" r="1" fill="#06B6D4" opacity="0.14"/><circle cx="63" cy="72" r="3.16" fill="#06B6D4" opacity="0.39"/><circle cx="63" cy="81" r="2.43" fill="#06B6D4" opacity="0.30"/><circle cx="63" cy="90" r="1.09" fill="#06B6D4" opacity="0.15"/><circle cx="63" cy="99" r="1.02" fill="#06B6D4" opacity="0.15"/><circle cx="63" cy="108" r="1.02" fill="#06B6D4" opacity="0.15"/><circle cx="63" cy="117" r="1.99" fill="#06B6D4" opacity="0.26"/><circle cx="63" cy="126" r="3.39" fill="#06B6D4" opacity="0.41"/><circle cx="63" cy="135" r="1.21" fill="#06B6D4" opacity="0.17"/><circle cx="72" cy="54" r="1.23" fill="#06B6D4" opacity="0.17"/><circle cx="72" cy="63" r="3.16" fill="#06B6D4" opacity="0.39"/><circle cx="72" cy="72" r="1.48" fill="#06B6D4" opacity="0.20"/><circle cx="72" cy="81" r="2.11" fill="#06B6D4" opacity="0.27"/><circle cx="72" cy="90" r="3.4" fill="#06B6D4" opacity="0.41"/><circle cx="72" cy="99" r="3.04" fill="#06B6D4" opacity="0.37"/><circle cx="72" cy="108" r="3.33" fill="#06B6D4" opacity="0.41"/><circle cx="72" cy="117" r="2.64" fill="#06B6D4" opacity="0.33"/><circle cx="72" cy="126" r="1.07" fill="#06B6D4" opacity="0.15"/><circle cx="72" cy="135" r="3.4" fill="#06B6D4" opacity="0.41"/><circle cx="72" cy="144" r="1" fill="#06B6D4" opacity="0.14"/><circle cx="81" cy="54" r="1.64" fill="#06B6D4" opacity="0.22"/><circle cx="81" cy="63" r="2.43" fill="#06B6D4" opacity="0.30"/><circle cx="81" cy="72" r="2.11" fill="#06B6D4" opacity="0.27"/><circle cx="81" cy="81" r="2.54" fill="#06B6D4" opacity="0.32"/><circle cx="81" cy="90" r="1.1" fill="#06B6D4" opacity="0.16"/><circle cx="81" cy="99" r="2.04" fill="#06B6D4" opacity="0.26"/><circle cx="81" cy="108" r="1.34" fill="#06B6D4" opacity="0.18"/><circle cx="81" cy="117" r="1.86" fill="#06B6D4" opacity="0.24"/><circle cx="81" cy="126" r="2.89" fill="#06B6D4" opacity="0.36"/><circle cx="81" cy="135" r="1.57" fill="#06B6D4" opacity="0.21"/><circle cx="81" cy="144" r="2.54" fill="#06B6D4" opacity="0.32"/><circle cx="90" cy="54" r="2.93" fill="#06B6D4" opacity="0.36"/><circle cx="90" cy="63" r="1.09" fill="#06B6D4" opacity="0.15"/><circle cx="90" cy="72" r="3.4" fill="#06B6D4" opacity="0.41"/><circle cx="90" cy="81" r="1.1" fill="#06B6D4" opacity="0.16"/><circle cx="90" cy="90" r="3.33" fill="#06B6D4" opacity="0.41"/><circle cx="90" cy="99" r="1.63" fill="#06B6D4" opacity="0.22"/><circle cx="90" cy="108" r="2.94" fill="#06B6D4" opacity="0.36"/><circle cx="90" cy="117" r="1.7" fill="#06B6D4" opacity="0.22"/><circle cx="90" cy="126" r="2.98" fill="#06B6D4" opacity="0.37"/><circle cx="90" cy="135" r="1.1" fill="#06B6D4" opacity="0.16"/><circle cx="90" cy="144" r="3.39" fill="#06B6D4" opacity="0.41"/><circle cx="90" cy="153" r="1.25" fill="#06B6D4" opacity="0.17"/><circle cx="99" cy="54" r="3.27" fill="#06B6D4" opacity="0.40"/><circle cx="99" cy="63" r="1.02" fill="#06B6D4" opacity="0.15"/><circle cx="99" cy="72" r="3.04" fill="#06B6D4" opacity="0.37"/><circle cx="99" cy="81" r="2.04" fill="#06B6D4" opacity="0.26"/><circle cx="99" cy="90" r="1.63" fill="#06B6D4" opacity="0.22"/><circle cx="99" cy="99" r="3.19" fill="#06B6D4" opacity="0.39"/><circle cx="99" cy="108" r="1.04" fill="#06B6D4" opacity="0.15"/><circle cx="99" cy="117" r="2.97" fill="#06B6D4" opacity="0.37"/><circle cx="99" cy="126" r="2.12" fill="#06B6D4" opacity="0.27"/><circle cx="99" cy="135" r="1.55" fill="#06B6D4" opacity="0.21"/><circle cx="99" cy="144" r="3.32" fill="#06B6D4" opacity="0.41"/><circle cx="99" cy="153" r="1.04" fill="#06B6D4" opacity="0.15"/><circle cx="108" cy="54" r="3.07" fill="#06B6D4" opacity="0.38"/><circle cx="108" cy="63" r="1.02" fill="#06B6D4" opacity="0.15"/><circle cx="108" cy="72" r="3.33" fill="#06B6D4" opacity="0.41"/><circle cx="108" cy="81" r="1.34" fill="#06B6D4" opacity="0.18"/><circle cx="108" cy="90" r="2.94" fill="#06B6D4" opacity="0.36"/><circle cx="108" cy="99" r="1.04" fill="#06B6D4" opacity="0.15"/><circle cx="108" cy="108" r="2.25" fill="#06B6D4" opacity="0.28"/><circle cx="108" cy="117" r="2.16" fill="#06B6D4" opacity="0.27"/><circle cx="108" cy="126" r="2.7" fill="#06B6D4" opacity="0.34"/><circle cx="108" cy="135" r="1.23" fill="#06B6D4" opacity="0.17"/><circle cx="108" cy="144" r="3.4" fill="#06B6D4" opacity="0.41"/><circle cx="108" cy="153" r="1.16" fill="#06B6D4" opacity="0.16"/><circle cx="117" cy="54" r="1.99" fill="#06B6D4" opacity="0.26"/><circle cx="117" cy="63" r="1.99" fill="#06B6D4" opacity="0.26"/><circle cx="117" cy="72" r="2.64" fill="#06B6D4" opacity="0.33"/><circle cx="117" cy="81" r="1.86" fill="#06B6D4" opacity="0.24"/><circle cx="117" cy="90" r="1.7" fill="#06B6D4" opacity="0.22"/><circle cx="117" cy="99" r="2.97" fill="#06B6D4" opacity="0.37"/><circle cx="117" cy="108" r="2.16" fill="#06B6D4" opacity="0.27"/><circle cx="117" cy="117" r="1.26" fill="#06B6D4" opacity="0.17"/><circle cx="117" cy="126" r="3.26" fill="#06B6D4" opacity="0.40"/><circle cx="117" cy="135" r="1.23" fill="#06B6D4" opacity="0.17"/><circle cx="117" cy="144" r="2.89" fill="#06B6D4" opacity="0.36"/><circle cx="126" cy="54" r="1.02" fill="#06B6D4" opacity="0.15"/><circle cx="126" cy="63" r="3.39" fill="#06B6D4" opacity="0.41"/><circle cx="126" cy="72" r="1.07" fill="#06B6D4" opacity="0.15"/><circle cx="126" cy="81" r="2.89" fill="#06B6D4" opacity="0.36"/><circle cx="126" cy="90" r="2.98" fill="#06B6D4" opacity="0.37"/><circle cx="126" cy="99" r="2.12" fill="#06B6D4" opacity="0.27"/><circle cx="126" cy="108" r="2.7" fill="#06B6D4" opacity="0.34"/><circle cx="126" cy="117" r="3.26" fill="#06B6D4" opacity="0.40"/><circle cx="126" cy="126" r="1.04" fill="#06B6D4" opacity="0.15"/><circle cx="126" cy="135" r="3.23" fill="#06B6D4" opacity="0.39"/><circle cx="126" cy="144" r="1.16" fill="#06B6D4" opacity="0.16"/><circle cx="135" cy="63" r="1.21" fill="#06B6D4" opacity="0.17"/><circle cx="135" cy="72" r="3.4" fill="#06B6D4" opacity="0.41"/><circle cx="135" cy="81" r="1.57" fill="#06B6D4" opacity="0.21"/><circle cx="135" cy="90" r="1.1" fill="#06B6D4" opacity="0.16"/><circle cx="135" cy="99" r="1.55" fill="#06B6D4" opacity="0.21"/><circle cx="135" cy="108" r="1.23" fill="#06B6D4" opacity="0.17"/><circle cx="135" cy="117" r="1.23" fill="#06B6D4" opacity="0.17"/><circle cx="135" cy="126" r="3.23" fill="#06B6D4" opacity="0.39"/><circle cx="135" cy="135" r="1.77" fill="#06B6D4" opacity="0.23"/><circle cx="144" cy="72" r="1" fill="#06B6D4" opacity="0.14"/><circle cx="144" cy="81" r="2.54" fill="#06B6D4" opacity="0.32"/><circle cx="144" cy="90" r="3.39" fill="#06B6D4" opacity="0.41"/><circle cx="144" cy="99" r="3.32" fill="#06B6D4" opacity="0.41"/><circle cx="144" cy="108" r="3.4" fill="#06B6D4" opacity="0.41"/><circle cx="144" cy="117" r="2.89" fill="#06B6D4" opacity="0.36"/><circle cx="144" cy="126" r="1.16" fill="#06B6D4" opacity="0.16"/><circle cx="153" cy="90" r="1.25" fill="#06B6D4" opacity="0.17"/><circle cx="153" cy="99" r="1.04" fill="#06B6D4" opacity="0.15"/><circle cx="153" cy="108" r="1.16" fill="#06B6D4" opacity="0.16"/>
<g stroke="url(#gR06)" stroke-width="3.2" fill="none" stroke-linecap="round">
<path d="M100 58 C82 56 66 70 70 92 C58 102 64 124 80 130 C80 142 96 146 100 138" fill="none"/><path d="M100 58 C118 56 134 70 130 92 C142 102 136 124 120 130 C120 142 104 146 100 138" fill="none"/><path d="M78 80 Q88 92 78 102 Q68 112 78 124" fill="none"/><path d="M122 80 Q112 92 122 102 Q132 112 122 124" fill="none"/>
</g>
<text x="100" y="190" text-anchor="middle" font-family="Helvetica, Arial, sans-serif" font-size="11" font-weight="700" letter-spacing="2" fill="#3B82F6">GRADIENT · QUANTA</text>
</svg>