<svg xmlns="http://www.w3.org/2000/svg" viewBox="0 0 200 200" width="200" height="200">
<rect width="200" height="200" fill="#FAFAFA"/>
<defs><clipPath id="clpR24"><path d="M100 52 C72 50 52 72 58 96 C46 110 56 132 76 132 C76 146 88 154 100 146 L106 158 L112 146 C132 152 148 132 138 110 C152 88 134 58 105 56 Z"/></clipPath></defs>
<g clip-path="url(#clpR24)"><circle cx="73" cy="69" r="0.86" fill="#7E22CE" opacity="0.36"/><circle cx="73" cy="78" r="1.42" fill="#7E22CE" opacity="0.56"/><circle cx="73" cy="87" r="1.8" fill="#7E22CE" opacity="0.70"/><circle cx="73" cy="96" r="1.25" fill="#7E22CE" opacity="0.50"/><circle cx="73" cy="105" r="1.29" fill="#7E22CE" opacity="0.52"/><circle cx="73" cy="114" r="1.85" fill="#7E22CE" opacity="0.72"/><circle cx="73" cy="123" r="1.27" fill="#7E22CE" opacity="0.51"/><circle cx="73" cy="132" r="1" fill="#7E22CE" opacity="0.41"/><circle cx="73" cy="141" r="1.72" fill="#7E22CE" opacity="0.68"/><circle cx="81" cy="69" r="1.06" fill="#7E22CE" opacity="0.43"/><circle cx="81" cy="78" r="1.65" fill="#7E22CE" opacity="0.65"/><circle cx="81" cy="87" r="0.71" fill="#7E22CE" opacity="0.31"/><circle cx="81" cy="96" r="1.35" fill="#7E22CE" opacity="0.54"/><circle cx="81" cy="105" r="1.3" fill="#7E22CE" opacity="0.52"/><circle cx="81" cy="114" r="0.7" fill="#7E22CE" opacity="0.30"/><circle cx="81" cy="123" r="1.78" fill="#7E22CE" opacity="0.70"/><circle cx="81" cy="132" r="0.89" fill="#7E22CE" opacity="0.37"/><circle cx="81" cy="141" r="1.73" fill="#7E22CE" opacity="0.68"/><circle cx="89" cy="69" r="1.8" fill="#7E22CE" opacity="0.70"/><circle cx="89" cy="78" r="0.75" fill="#7E22CE" opacity="0.32"/><circle cx="89" cy="87" r="1.82" fill="#7E22CE" opacity="0.71"/><circle cx="89" cy="96" r="1.28" fill="#7E22CE" opacity="0.51"/><circle cx="89" cy="105" r="1.37" fill="#7E22CE" opacity="0.55"/><circle cx="89" cy="114" r="1.7" fill="#7E22CE" opacity="0.67"/><circle cx="89" cy="123" r="0.87" fill="#7E22CE" opacity="0.36"/><circle cx="89" cy="132" r="1.64" fill="#7E22CE" opacity="0.64"/><circle cx="89" cy="141" r="1.12" fill="#7E22CE" opacity="0.46"/><circle cx="97" cy="69" r="1.9" fill="#7E22CE" opacity="0.74"/><circle cx="97" cy="78" r="0.79" fill="#7E22CE" opacity="0.33"/><circle cx="97" cy="87" r="1.65" fill="#7E22CE" opacity="0.65"/><circle cx="97" cy="96" r="1.05" fill="#7E22CE" opacity="0.43"/><circle cx="97" cy="105" r="0.89" fill="#7E22CE" opacity="0.37"/><circle cx="97" cy="114" r="1.81" fill="#7E22CE" opacity="0.71"/><circle cx="97" cy="123" r="0.71" fill="#7E22CE" opacity="0.30"/><circle cx="97" cy="132" r="1.87" fill="#7E22CE" opacity="0.73"/><circle cx="97" cy="141" r="0.86" fill="#7E22CE" opacity="0.36"/><circle cx="105" cy="69" r="1.9" fill="#7E22CE" opacity="0.74"/><circle cx="105" cy="78" r="0.75" fill="#7E22CE" opacity="0.32"/><circle cx="105" cy="87" r="1.75" fill="#7E22CE" opacity="0.69"/><circle cx="105" cy="96" r="0.8" fill="#7E22CE" opacity="0.34"/><circle cx="105" cy="105" r="0.73" fill="#7E22CE" opacity="0.31"/><circle cx="105" cy="114" r="1.87" fill="#7E22CE" opacity="0.73"/><circle cx="105" cy="123" r="0.7" fill="#7E22CE" opacity="0.30"/><circle cx="105" cy="132" r="1.86" fill="#7E22CE" opacity="0.72"/><circle cx="105" cy="141" r="0.89" fill="#7E22CE" opacity="0.37"/><circle cx="113" cy="69" r="1.68" fill="#7E22CE" opacity="0.66"/><circle cx="113" cy="78" r="0.88" fill="#7E22CE" opacity="0.37"/><circle cx="113" cy="87" r="1.59" fill="#7E22CE" opacity="0.63"/><circle cx="113" cy="96" r="1.7" fill="#7E22CE" opacity="0.67"/><circle cx="113" cy="105" r="1.75" fill="#7E22CE" opacity="0.69"/><circle cx="113" cy="114" r="1.43" fill="#7E22CE" opacity="0.57"/><circle cx="113" cy="123" r="1.05" fill="#7E22CE" opacity="0.43"/><circle cx="113" cy="132" r="1.49" fill="#7E22CE" opacity="0.59"/><circle cx="113" cy="141" r="1.26" fill="#7E22CE" opacity="0.50"/><circle cx="121" cy="69" r="0.85" fill="#7E22CE" opacity="0.36"/><circle cx="121" cy="78" r="1.85" fill="#7E22CE" opacity="0.72"/><circle cx="121" cy="87" r="0.76" fill="#7E22CE" opacity="0.32"/><circle cx="121" cy="96" r="0.91" fill="#7E22CE" opacity="0.38"/><circle cx="121" cy="105" r="0.88" fill="#7E22CE" opacity="0.37"/><circle cx="121" cy="114" r="0.83" fill="#7E22CE" opacity="0.35"/><circle cx="121" cy="123" r="1.9" fill="#7E22CE" opacity="0.74"/><circle cx="121" cy="132" r="0.75" fill="#7E22CE" opacity="0.32"/><circle cx="121" cy="141" r="1.85" fill="#7E22CE" opacity="0.72"/><circle cx="129" cy="69" r="1.12" fill="#7E22CE" opacity="0.46"/><circle cx="129" cy="78" r="1.05" fill="#7E22CE" opacity="0.43"/><circle cx="129" cy="87" r="1.89" fill="#7E22CE" opacity="0.74"/><circle cx="129" cy="96" r="1.69" fill="#7E22CE" opacity="0.66"/><circle cx="129" cy="105" r="1.72" fill="#7E22CE" opacity="0.67"/><circle cx="129" cy="114" r="1.87" fill="#7E22CE" opacity="0.73"/><circle cx="129" cy="123" r="0.93" fill="#7E22CE" opacity="0.38"/><circle cx="129" cy="132" r="1.3" fill="#7E22CE" opacity="0.52"/><circle cx="129" cy="141" r="1.5" fill="#7E22CE" opacity="0.59"/><circle cx="137" cy="69" r="1.84" fill="#7E22CE" opacity="0.72"/><circle cx="137" cy="78" r="1.26" fill="#7E22CE" opacity="0.51"/><circle cx="137" cy="87" r="0.7" fill="#7E22CE" opacity="0.30"/><circle cx="137" cy="96" r="0.89" fill="#7E22CE" opacity="0.37"/><circle cx="137" cy="105" r="0.87" fill="#7E22CE" opacity="0.36"/><circle cx="137" cy="114" r="0.7" fill="#7E22CE" opacity="0.30"/><circle cx="137" cy="123" r="1.39" fill="#7E22CE" opacity="0.55"/><circle cx="137" cy="132" r="1.75" fill="#7E22CE" opacity="0.69"/><circle cx="137" cy="141" r="0.7" fill="#7E22CE" opacity="0.30"/></g>
<g stroke="#1a1a1a" stroke-width="3" fill="none" stroke-linecap="round" stroke-linejoin="round"><path d="M100 52 C72 50 52 72 58 96 C46 110 56 132 76 132 C76 146 88 154 100 146 L106 158 L112 146 C132 152 148 132 138 110 C152 88 134 58 105 56 Z" stroke-linejoin="round"/></g>
<g stroke="#FACC15" stroke-width="1.8" opacity="0.95" fill="none" stroke-linecap="round" stroke-linejoin="round">
<path d="M100 60 L94 88 L78 100 L92 120 L88 145"/>
<path d="M138 92 L116 96 L94 88"/>
<path d="M78 100 L66 116" stroke-width="1.2"/>
<path d="M92 120 L120 128" stroke-width="1.2"/>
</g>
<g fill="#FACC15">
<circle cx="94" cy="88" r="2.2"/><circle cx="116" cy="96" r="2.2"/><circle cx="92" cy="120" r="2.2"/>
</g>
<text x="100" y="190" text-anchor="middle" font-family="Helvetica, Arial, sans-serif" font-size="11" font-weight="700" letter-spacing="2" fill="#FACC15">WABI · QUANTA</text>
</svg>