<svg xmlns="http://www.w3.org/2000/svg" viewBox="0 0 200 200" width="200" height="200">
<rect width="200" height="200" fill="#FAFAFA"/>
<defs>
<linearGradient id="gR20" x1="0" y1="0" x2="1" y2="1">
<stop offset="0" stop-color="#4338CA"/><stop offset="1" stop-color="#7C3AED"/>
</linearGradient>
</defs>
<g stroke="url(#gR20)" stroke-width="3.2" fill="none" stroke-linecap="round">
<path d="M100 58 C82 56 66 70 70 92 C58 102 64 124 80 130 C80 142 96 146 100 138" fill="none"/><path d="M100 58 C118 56 134 70 130 92 C142 102 136 124 120 130 C120 142 104 146 100 138" fill="none"/><path d="M78 80 Q88 92 78 102 Q68 112 78 124" fill="none"/><path d="M122 80 Q112 92 122 102 Q132 112 122 124" fill="none"/>
</g>
<g>
<line x1="78" y1="78" x2="100" y2="68" stroke="#F59E0B" stroke-width="0.9" opacity="0.5"/>
<line x1="100" y1="68" x2="122" y2="78" stroke="#F59E0B" stroke-width="0.9" opacity="0.5"/>
<line x1="78" y1="78" x2="78" y2="120" stroke="#F59E0B" stroke-width="0.9" opacity="0.5"/>
<line x1="122" y1="78" x2="122" y2="120" stroke="#F59E0B" stroke-width="0.9" opacity="0.5"/>
<line x1="78" y1="120" x2="100" y2="138" stroke="#F59E0B" stroke-width="0.9" opacity="0.5"/>
<line x1="122" y1="120" x2="100" y2="138" stroke="#F59E0B" stroke-width="0.9" opacity="0.5"/>
<circle cx="100" cy="68" r="2.5" fill="#F59E0B"/><circle cx="100" cy="68" r="5" fill="none" stroke="#F59E0B" stroke-width="0.6" opacity="0.5"/><circle cx="78" cy="78" r="2" fill="#F59E0B"/><circle cx="78" cy="78" r="4.5" fill="none" stroke="#F59E0B" stroke-width="0.6" opacity="0.5"/><circle cx="122" cy="78" r="2" fill="#F59E0B"/><circle cx="122" cy="78" r="4.5" fill="none" stroke="#F59E0B" stroke-width="0.6" opacity="0.5"/><circle cx="78" cy="120" r="2" fill="#F59E0B"/><circle cx="78" cy="120" r="4.5" fill="none" stroke="#F59E0B" stroke-width="0.6" opacity="0.5"/><circle cx="122" cy="120" r="2" fill="#F59E0B"/><circle cx="122" cy="120" r="4.5" fill="none" stroke="#F59E0B" stroke-width="0.6" opacity="0.5"/><circle cx="100" cy="138" r="2.5" fill="#F59E0B"/><circle cx="100" cy="138" r="5" fill="none" stroke="#F59E0B" stroke-width="0.6" opacity="0.5"/><circle cx="100" cy="100" r="3" fill="#F59E0B"/><circle cx="100" cy="100" r="5.5" fill="none" stroke="#F59E0B" stroke-width="0.6" opacity="0.5"/>
</g>
<text x="100" y="190" text-anchor="middle" font-family="Helvetica, Arial, sans-serif" font-size="11" font-weight="700" letter-spacing="2" fill="#F59E0B">GRADIENT · COSMOS</text>
</svg>