<svg xmlns="http://www.w3.org/2000/svg" viewBox="0 0 200 200" width="200" height="200">
<rect width="200" height="200" fill="#FAFAFA"/>
<path d="M65 90 Q60 60 95 55 Q130 50 140 80 Q155 100 140 130 Q130 155 95 150 Q60 145 65 115 Q55 102 65 90 Z" fill="none" stroke="#FACC15" stroke-width="3" stroke-linejoin="round"/>
<g stroke="#FACC15" stroke-width="1.6" opacity="0.85" fill="none" stroke-linecap="round">
<path d="M95 55 L92 90 L75 100 L88 120 L85 150"/>
<path d="M140 80 L120 95 L92 90"/>
<path d="M75 100 L65 115" stroke-width="1.2" opacity="0.7"/>
<path d="M120 95 L140 130" stroke-width="1.2" opacity="0.7"/>
<path d="M88 120 L120 130" stroke-width="1.2" opacity="0.7"/>
</g>
<g fill="#F59E0B">
<circle cx="92" cy="90" r="4"/><circle cx="92" cy="90" r="7.5" fill="none" stroke="#F59E0B" stroke-width="0.8" opacity="0.4"/><circle cx="120" cy="95" r="4"/><circle cx="120" cy="95" r="7.5" fill="none" stroke="#F59E0B" stroke-width="0.8" opacity="0.4"/><circle cx="88" cy="120" r="4"/><circle cx="88" cy="120" r="7.5" fill="none" stroke="#F59E0B" stroke-width="0.8" opacity="0.4"/><circle cx="75" cy="100" r="3"/><circle cx="75" cy="100" r="6.5" fill="none" stroke="#F59E0B" stroke-width="0.8" opacity="0.4"/><circle cx="120" cy="130" r="3"/><circle cx="120" cy="130" r="6.5" fill="none" stroke="#F59E0B" stroke-width="0.8" opacity="0.4"/>
</g>
<text x="100" y="190" text-anchor="middle" font-family="Helvetica, Arial, sans-serif" font-size="11" font-weight="700" letter-spacing="2" fill="#F59E0B">CRACKED · STARS</text>
</svg>