<svg xmlns="http://www.w3.org/2000/svg" viewBox="0 0 200 200" width="200" height="200">
<rect width="200" height="200" fill="#FAFAFA"/>
<path d="M65 90 Q60 60 95 55 Q130 50 140 80 Q155 100 140 130 Q130 155 95 150 Q60 145 65 115 Q55 102 65 90 Z" fill="none" stroke="#7E22CE" stroke-width="3" stroke-linejoin="round"/>
<g stroke="#FACC15" stroke-width="1.6" opacity="0.85" fill="none" stroke-linecap="round">
<line x1="95" y1="55" x2="100" y2="100"/>
<line x1="100" y1="100" x2="140" y2="80"/>
<line x1="100" y1="100" x2="75" y2="100"/>
<line x1="100" y1="100" x2="120" y2="130"/>
<line x1="100" y1="100" x2="85" y2="135"/>
<line x1="75" y1="100" x2="65" y2="115"/>
<line x1="140" y1="80" x2="140" y2="130"/>
<line x1="120" y1="130" x2="140" y2="130"/>
<line x1="85" y1="135" x2="120" y2="130"/>
<line x1="95" y1="150" x2="85" y2="135"/>
</g>
<g fill="#FACC15">
<circle cx="100" cy="100" r="5"/>
<circle cx="100" cy="100" r="9" fill="none" stroke="#FACC15" stroke-width="0.8" stroke-dasharray="2 2" opacity="0.6"/>
<circle cx="95" cy="55" r="3"/><circle cx="140" cy="80" r="3"/><circle cx="140" cy="130" r="3"/><circle cx="75" cy="100" r="3"/><circle cx="120" cy="130" r="3"/><circle cx="85" cy="135" r="3"/><circle cx="95" cy="150" r="3"/><circle cx="65" cy="115" r="3"/>
</g>
<text x="100" y="190" text-anchor="middle" font-family="Helvetica, Arial, sans-serif" font-size="11" font-weight="700" letter-spacing="2" fill="#FACC15">NODE · CRACKS</text>
</svg>