<svg xmlns="http://www.w3.org/2000/svg" viewBox="0 0 200 200" width="200" height="200">
<rect width="200" height="200" fill="#FAFAFA"/>
<g><circle cx="50" cy="100" r="2.83" fill="#7E22CE" opacity="0.77"/><circle cx="55" cy="80" r="3.16" fill="#7E22CE" opacity="0.85"/><circle cx="55" cy="90" r="3.49" fill="#7E22CE" opacity="0.93"/><circle cx="55" cy="100" r="3.16" fill="#7E22CE" opacity="0.85"/><circle cx="55" cy="110" r="3.49" fill="#7E22CE" opacity="0.93"/><circle cx="55" cy="120" r="3.16" fill="#7E22CE" opacity="0.85"/><circle cx="60" cy="70" r="2.83" fill="#7E22CE" opacity="0.77"/><circle cx="60" cy="80" r="3.04" fill="#7E22CE" opacity="0.82"/><circle cx="60" cy="90" r="1.38" fill="#7E22CE" opacity="0.44"/><circle cx="60" cy="100" r="1.06" fill="#7E22CE" opacity="0.36"/><circle cx="60" cy="110" r="1.38" fill="#7E22CE" opacity="0.44"/><circle cx="60" cy="120" r="3.04" fill="#7E22CE" opacity="0.82"/><circle cx="60" cy="130" r="2.83" fill="#7E22CE" opacity="0.77"/><circle cx="65" cy="70" r="3.49" fill="#7E22CE" opacity="0.93"/><circle cx="65" cy="80" r="1.11" fill="#7E22CE" opacity="0.38"/><circle cx="65" cy="90" r="1.77" fill="#7E22CE" opacity="0.53"/><circle cx="65" cy="100" r="2.48" fill="#7E22CE" opacity="0.69"/><circle cx="65" cy="110" r="1.77" fill="#7E22CE" opacity="0.53"/><circle cx="65" cy="120" r="1.11" fill="#7E22CE" opacity="0.38"/><circle cx="65" cy="130" r="3.49" fill="#7E22CE" opacity="0.93"/><circle cx="70" cy="60" r="2.83" fill="#7E22CE" opacity="0.77"/><circle cx="70" cy="70" r="1.91" fill="#7E22CE" opacity="0.56"/><circle cx="70" cy="80" r="1.93" fill="#7E22CE" opacity="0.57"/><circle cx="70" cy="90" r="3.6" fill="#7E22CE" opacity="0.95"/><circle cx="70" cy="100" r="3.4" fill="#7E22CE" opacity="0.90"/><circle cx="70" cy="110" r="3.6" fill="#7E22CE" opacity="0.95"/><circle cx="70" cy="120" r="1.93" fill="#7E22CE" opacity="0.57"/><circle cx="70" cy="130" r="1.91" fill="#7E22CE" opacity="0.56"/><circle cx="70" cy="140" r="2.83" fill="#7E22CE" opacity="0.77"/><circle cx="75" cy="60" r="3.6" fill="#7E22CE" opacity="0.95"/><circle cx="75" cy="70" r="1" fill="#7E22CE" opacity="0.35"/><circle cx="75" cy="80" r="3.56" fill="#7E22CE" opacity="0.94"/><circle cx="75" cy="90" r="2.01" fill="#7E22CE" opacity="0.58"/><circle cx="75" cy="100" r="1.21" fill="#7E22CE" opacity="0.40"/><circle cx="75" cy="110" r="2.01" fill="#7E22CE" opacity="0.58"/><circle cx="75" cy="120" r="3.56" fill="#7E22CE" opacity="0.94"/><circle cx="75" cy="130" r="1" fill="#7E22CE" opacity="0.35"/><circle cx="75" cy="140" r="3.6" fill="#7E22CE" opacity="0.95"/><circle cx="80" cy="60" r="3.04" fill="#7E22CE" opacity="0.82"/><circle cx="80" cy="70" r="1.93" fill="#7E22CE" opacity="0.57"/><circle cx="80" cy="80" r="2.71" fill="#7E22CE" opacity="0.74"/><circle cx="80" cy="90" r="1.15" fill="#7E22CE" opacity="0.38"/><circle cx="80" cy="100" r="2.11" fill="#7E22CE" opacity="0.61"/><circle cx="80" cy="110" r="1.15" fill="#7E22CE" opacity="0.38"/><circle cx="80" cy="120" r="2.71" fill="#7E22CE" opacity="0.74"/><circle cx="80" cy="130" r="1.93" fill="#7E22CE" opacity="0.57"/><circle cx="80" cy="140" r="3.04" fill="#7E22CE" opacity="0.82"/><circle cx="85" cy="60" r="2.05" fill="#7E22CE" opacity="0.59"/><circle cx="85" cy="70" r="3.16" fill="#7E22CE" opacity="0.85"/><circle cx="85" cy="80" r="1.21" fill="#7E22CE" opacity="0.40"/><circle cx="85" cy="90" r="3.08" fill="#7E22CE" opacity="0.83"/><circle cx="85" cy="100" r="3.55" fill="#7E22CE" opacity="0.94"/><circle cx="85" cy="110" r="3.08" fill="#7E22CE" opacity="0.83"/><circle cx="85" cy="120" r="1.21" fill="#7E22CE" opacity="0.40"/><circle cx="85" cy="130" r="3.16" fill="#7E22CE" opacity="0.85"/><circle cx="85" cy="140" r="2.05" fill="#7E22CE" opacity="0.59"/><circle cx="90" cy="60" r="1.38" fill="#7E22CE" opacity="0.44"/><circle cx="90" cy="70" r="3.6" fill="#7E22CE" opacity="0.95"/><circle cx="90" cy="80" r="1.15" fill="#7E22CE" opacity="0.38"/><circle cx="90" cy="90" r="3.35" fill="#7E22CE" opacity="0.89"/><circle cx="90" cy="100" r="1.45" fill="#7E22CE" opacity="0.45"/><circle cx="90" cy="110" r="3.35" fill="#7E22CE" opacity="0.89"/><circle cx="90" cy="120" r="1.15" fill="#7E22CE" opacity="0.38"/><circle cx="90" cy="130" r="3.6" fill="#7E22CE" opacity="0.95"/><circle cx="90" cy="140" r="1.38" fill="#7E22CE" opacity="0.44"/><circle cx="95" cy="60" r="1.11" fill="#7E22CE" opacity="0.38"/><circle cx="95" cy="70" r="3.5" fill="#7E22CE" opacity="0.93"/><circle cx="95" cy="80" r="1.8" fill="#7E22CE" opacity="0.54"/><circle cx="95" cy="90" r="1.99" fill="#7E22CE" opacity="0.58"/><circle cx="95" cy="100" r="1.76" fill="#7E22CE" opacity="0.53"/><circle cx="95" cy="110" r="1.99" fill="#7E22CE" opacity="0.58"/><circle cx="95" cy="120" r="1.8" fill="#7E22CE" opacity="0.54"/><circle cx="95" cy="130" r="3.5" fill="#7E22CE" opacity="0.93"/><circle cx="95" cy="140" r="1.11" fill="#7E22CE" opacity="0.38"/><g stroke="#4338CA" stroke-width="2.2" fill="none" stroke-linecap="round">
<path d="M105 56 C128 56 142 76 138 100 C148 110 140 132 120 138 C116 150 105 150 105 138 Z" stroke-width="3"/>
<path d="M118 78 Q108 90 118 102 Q128 114 118 126" opacity="0.7"/>
<path d="M130 105 Q120 110 125 122" opacity="0.5" stroke-width="1.5"/>
</g><line x1="100" y1="48" x2="100" y2="156" stroke="#7E22CE" stroke-width="1" stroke-dasharray="2 3" opacity="0.7"/></g>
<text x="100" y="190" text-anchor="middle" font-family="Helvetica, Arial, sans-serif" font-size="11" font-weight="700" letter-spacing="2" fill="#7E22CE">BIFOLD · QUANTA</text>
</svg>