<svg xmlns="http://www.w3.org/2000/svg" viewBox="0 0 200 200" width="200" height="200">
<rect width="200" height="200" fill="#FAFAFA"/>
<g><circle cx="54" cy="72" r="1.23" fill="#7E22CE" opacity="0.19"/><circle cx="54" cy="81" r="1.64" fill="#7E22CE" opacity="0.24"/><circle cx="54" cy="90" r="2.93" fill="#7E22CE" opacity="0.40"/><circle cx="54" cy="99" r="3.27" fill="#7E22CE" opacity="0.44"/><circle cx="54" cy="108" r="3.07" fill="#7E22CE" opacity="0.42"/><circle cx="54" cy="117" r="1.99" fill="#7E22CE" opacity="0.28"/><circle cx="54" cy="126" r="1.02" fill="#7E22CE" opacity="0.16"/><circle cx="63" cy="63" r="1" fill="#7E22CE" opacity="0.16"/><circle cx="63" cy="72" r="3.16" fill="#7E22CE" opacity="0.43"/><circle cx="63" cy="81" r="2.43" fill="#7E22CE" opacity="0.34"/><circle cx="63" cy="90" r="1.09" fill="#7E22CE" opacity="0.17"/><circle cx="63" cy="99" r="1.02" fill="#7E22CE" opacity="0.16"/><circle cx="63" cy="108" r="1.02" fill="#7E22CE" opacity="0.16"/><circle cx="63" cy="117" r="1.99" fill="#7E22CE" opacity="0.28"/><circle cx="63" cy="126" r="3.39" fill="#7E22CE" opacity="0.46"/><circle cx="63" cy="135" r="1.21" fill="#7E22CE" opacity="0.19"/><circle cx="72" cy="54" r="1.23" fill="#7E22CE" opacity="0.19"/><circle cx="72" cy="63" r="3.16" fill="#7E22CE" opacity="0.43"/><circle cx="72" cy="72" r="1.48" fill="#7E22CE" opacity="0.22"/><circle cx="72" cy="81" r="2.11" fill="#7E22CE" opacity="0.30"/><circle cx="72" cy="90" r="3.4" fill="#7E22CE" opacity="0.46"/><circle cx="72" cy="99" r="3.04" fill="#7E22CE" opacity="0.41"/><circle cx="72" cy="108" r="3.33" fill="#7E22CE" opacity="0.45"/><circle cx="72" cy="117" r="2.64" fill="#7E22CE" opacity="0.37"/><circle cx="72" cy="126" r="1.07" fill="#7E22CE" opacity="0.17"/><circle cx="72" cy="135" r="3.4" fill="#7E22CE" opacity="0.46"/><circle cx="72" cy="144" r="1" fill="#7E22CE" opacity="0.16"/><circle cx="81" cy="54" r="1.64" fill="#7E22CE" opacity="0.24"/><circle cx="81" cy="63" r="2.43" fill="#7E22CE" opacity="0.34"/><circle cx="81" cy="72" r="2.11" fill="#7E22CE" opacity="0.30"/><circle cx="81" cy="81" r="2.54" fill="#7E22CE" opacity="0.35"/><circle cx="81" cy="90" r="1.1" fill="#7E22CE" opacity="0.17"/><circle cx="81" cy="99" r="2.04" fill="#7E22CE" opacity="0.29"/><circle cx="81" cy="108" r="1.34" fill="#7E22CE" opacity="0.20"/><circle cx="81" cy="117" r="1.86" fill="#7E22CE" opacity="0.27"/><circle cx="81" cy="126" r="2.89" fill="#7E22CE" opacity="0.40"/><circle cx="81" cy="135" r="1.57" fill="#7E22CE" opacity="0.23"/><circle cx="81" cy="144" r="2.54" fill="#7E22CE" opacity="0.35"/><circle cx="90" cy="54" r="2.93" fill="#7E22CE" opacity="0.40"/><circle cx="90" cy="63" r="1.09" fill="#7E22CE" opacity="0.17"/><circle cx="90" cy="72" r="3.4" fill="#7E22CE" opacity="0.46"/><circle cx="90" cy="81" r="1.1" fill="#7E22CE" opacity="0.17"/><circle cx="90" cy="90" r="3.33" fill="#7E22CE" opacity="0.45"/><circle cx="90" cy="99" r="1.63" fill="#7E22CE" opacity="0.24"/><circle cx="90" cy="108" r="2.94" fill="#7E22CE" opacity="0.40"/><circle cx="90" cy="117" r="1.7" fill="#7E22CE" opacity="0.25"/><circle cx="90" cy="126" r="2.98" fill="#7E22CE" opacity="0.41"/><circle cx="90" cy="135" r="1.1" fill="#7E22CE" opacity="0.17"/><circle cx="90" cy="144" r="3.39" fill="#7E22CE" opacity="0.46"/><circle cx="90" cy="153" r="1.25" fill="#7E22CE" opacity="0.19"/><circle cx="99" cy="54" r="3.27" fill="#7E22CE" opacity="0.44"/><circle cx="99" cy="63" r="1.02" fill="#7E22CE" opacity="0.16"/><circle cx="99" cy="72" r="3.04" fill="#7E22CE" opacity="0.41"/><circle cx="99" cy="81" r="2.04" fill="#7E22CE" opacity="0.29"/><circle cx="99" cy="90" r="1.63" fill="#7E22CE" opacity="0.24"/><circle cx="99" cy="99" r="3.19" fill="#7E22CE" opacity="0.43"/><circle cx="99" cy="108" r="1.04" fill="#7E22CE" opacity="0.16"/><circle cx="99" cy="117" r="2.97" fill="#7E22CE" opacity="0.41"/><circle cx="99" cy="126" r="2.12" fill="#7E22CE" opacity="0.30"/><circle cx="99" cy="135" r="1.55" fill="#7E22CE" opacity="0.23"/><circle cx="99" cy="144" r="3.32" fill="#7E22CE" opacity="0.45"/><circle cx="99" cy="153" r="1.04" fill="#7E22CE" opacity="0.17"/><circle cx="108" cy="54" r="3.07" fill="#7E22CE" opacity="0.42"/><circle cx="108" cy="63" r="1.02" fill="#7E22CE" opacity="0.16"/><circle cx="108" cy="72" r="3.33" fill="#7E22CE" opacity="0.45"/><circle cx="108" cy="81" r="1.34" fill="#7E22CE" opacity="0.20"/><circle cx="108" cy="90" r="2.94" fill="#7E22CE" opacity="0.40"/><circle cx="108" cy="99" r="1.04" fill="#7E22CE" opacity="0.16"/><circle cx="108" cy="108" r="2.25" fill="#7E22CE" opacity="0.32"/><circle cx="108" cy="117" r="2.16" fill="#7E22CE" opacity="0.30"/><circle cx="108" cy="126" r="2.7" fill="#7E22CE" opacity="0.37"/><circle cx="108" cy="135" r="1.23" fill="#7E22CE" opacity="0.19"/><circle cx="108" cy="144" r="3.4" fill="#7E22CE" opacity="0.46"/><circle cx="108" cy="153" r="1.16" fill="#7E22CE" opacity="0.18"/><circle cx="117" cy="54" r="1.99" fill="#7E22CE" opacity="0.28"/><circle cx="117" cy="63" r="1.99" fill="#7E22CE" opacity="0.28"/><circle cx="117" cy="72" r="2.64" fill="#7E22CE" opacity="0.37"/><circle cx="117" cy="81" r="1.86" fill="#7E22CE" opacity="0.27"/><circle cx="117" cy="90" r="1.7" fill="#7E22CE" opacity="0.25"/><circle cx="117" cy="99" r="2.97" fill="#7E22CE" opacity="0.41"/><circle cx="117" cy="108" r="2.16" fill="#7E22CE" opacity="0.30"/><circle cx="117" cy="117" r="1.26" fill="#7E22CE" opacity="0.19"/><circle cx="117" cy="126" r="3.26" fill="#7E22CE" opacity="0.44"/><circle cx="117" cy="135" r="1.23" fill="#7E22CE" opacity="0.19"/><circle cx="117" cy="144" r="2.89" fill="#7E22CE" opacity="0.40"/><circle cx="126" cy="54" r="1.02" fill="#7E22CE" opacity="0.16"/><circle cx="126" cy="63" r="3.39" fill="#7E22CE" opacity="0.46"/><circle cx="126" cy="72" r="1.07" fill="#7E22CE" opacity="0.17"/><circle cx="126" cy="81" r="2.89" fill="#7E22CE" opacity="0.40"/><circle cx="126" cy="90" r="2.98" fill="#7E22CE" opacity="0.41"/><circle cx="126" cy="99" r="2.12" fill="#7E22CE" opacity="0.30"/><circle cx="126" cy="108" r="2.7" fill="#7E22CE" opacity="0.37"/><circle cx="126" cy="117" r="3.26" fill="#7E22CE" opacity="0.44"/><circle cx="126" cy="126" r="1.04" fill="#7E22CE" opacity="0.17"/><circle cx="126" cy="135" r="3.23" fill="#7E22CE" opacity="0.44"/><circle cx="126" cy="144" r="1.16" fill="#7E22CE" opacity="0.18"/><circle cx="135" cy="63" r="1.21" fill="#7E22CE" opacity="0.19"/><circle cx="135" cy="72" r="3.4" fill="#7E22CE" opacity="0.46"/><circle cx="135" cy="81" r="1.57" fill="#7E22CE" opacity="0.23"/><circle cx="135" cy="90" r="1.1" fill="#7E22CE" opacity="0.17"/><circle cx="135" cy="99" r="1.55" fill="#7E22CE" opacity="0.23"/><circle cx="135" cy="108" r="1.23" fill="#7E22CE" opacity="0.19"/><circle cx="135" cy="117" r="1.23" fill="#7E22CE" opacity="0.19"/><circle cx="135" cy="126" r="3.23" fill="#7E22CE" opacity="0.44"/><circle cx="135" cy="135" r="1.77" fill="#7E22CE" opacity="0.26"/><circle cx="144" cy="72" r="1" fill="#7E22CE" opacity="0.16"/><circle cx="144" cy="81" r="2.54" fill="#7E22CE" opacity="0.35"/><circle cx="144" cy="90" r="3.39" fill="#7E22CE" opacity="0.46"/><circle cx="144" cy="99" r="3.32" fill="#7E22CE" opacity="0.45"/><circle cx="144" cy="108" r="3.4" fill="#7E22CE" opacity="0.46"/><circle cx="144" cy="117" r="2.89" fill="#7E22CE" opacity="0.40"/><circle cx="144" cy="126" r="1.16" fill="#7E22CE" opacity="0.18"/><circle cx="153" cy="90" r="1.25" fill="#7E22CE" opacity="0.19"/><circle cx="153" cy="99" r="1.04" fill="#7E22CE" opacity="0.17"/><circle cx="153" cy="108" r="1.16" fill="#7E22CE" opacity="0.18"/><line x1="100" y1="56" x2="70" y2="70" stroke="#06B6D4" stroke-width="1.4" opacity="0.55"/><line x1="100" y1="56" x2="130" y2="70" stroke="#06B6D4" stroke-width="1.4" opacity="0.55"/><line x1="70" y1="70" x2="56" y2="100" stroke="#06B6D4" stroke-width="1.4" opacity="0.55"/><line x1="130" y1="70" x2="144" y2="100" stroke="#06B6D4" stroke-width="1.4" opacity="0.55"/><line x1="56" y1="100" x2="72" y2="138" stroke="#06B6D4" stroke-width="1.4" opacity="0.55"/><line x1="144" y1="100" x2="128" y2="138" stroke="#06B6D4" stroke-width="1.4" opacity="0.55"/><line x1="72" y1="138" x2="128" y2="138" stroke="#06B6D4" stroke-width="1.4" opacity="0.55"/><line x1="100" y1="100" x2="100" y2="56" stroke="#06B6D4" stroke-width="1.4" opacity="0.55"/><line x1="100" y1="100" x2="70" y2="70" stroke="#06B6D4" stroke-width="1.4" opacity="0.55"/><line x1="100" y1="100" x2="130" y2="70" stroke="#06B6D4" stroke-width="1.4" opacity="0.55"/><line x1="100" y1="100" x2="56" y2="100" stroke="#06B6D4" stroke-width="1.4" opacity="0.55"/><line x1="100" y1="100" x2="144" y2="100" stroke="#06B6D4" stroke-width="1.4" opacity="0.55"/><line x1="100" y1="100" x2="72" y2="138" stroke="#06B6D4" stroke-width="1.4" opacity="0.55"/><line x1="100" y1="100" x2="128" y2="138" stroke="#06B6D4" stroke-width="1.4" opacity="0.55"/><line x1="85" y1="90" x2="70" y2="70" stroke="#06B6D4" stroke-width="1.4" opacity="0.55"/><line x1="85" y1="90" x2="56" y2="100" stroke="#06B6D4" stroke-width="1.4" opacity="0.55"/><line x1="115" y1="90" x2="130" y2="70" stroke="#06B6D4" stroke-width="1.4" opacity="0.55"/><line x1="115" y1="90" x2="144" y2="100" stroke="#06B6D4" stroke-width="1.4" opacity="0.55"/><line x1="85" y1="122" x2="72" y2="138" stroke="#06B6D4" stroke-width="1.4" opacity="0.55"/><line x1="115" y1="122" x2="128" y2="138" stroke="#06B6D4" stroke-width="1.4" opacity="0.55"/><line x1="85" y1="90" x2="115" y2="90" stroke="#06B6D4" stroke-width="1.4" opacity="0.55"/><line x1="85" y1="122" x2="115" y2="122" stroke="#06B6D4" stroke-width="1.4" opacity="0.55"/><circle cx="100" cy="56" r="4" fill="#06B6D4"/><circle cx="70" cy="70" r="4" fill="#06B6D4"/><circle cx="130" cy="70" r="4" fill="#06B6D4"/><circle cx="56" cy="100" r="4" fill="#06B6D4"/><circle cx="144" cy="100" r="4" fill="#06B6D4"/><circle cx="72" cy="138" r="4" fill="#06B6D4"/><circle cx="128" cy="138" r="4" fill="#06B6D4"/><circle cx="100" cy="100" r="6" fill="#06B6D4"/><circle cx="100" cy="100" r="11" fill="none" stroke="#06B6D4" stroke-width="1" stroke-dasharray="2 3" opacity="0.6"/><circle cx="85" cy="90" r="4" fill="#06B6D4"/><circle cx="115" cy="90" r="4" fill="#06B6D4"/><circle cx="85" cy="122" r="4" fill="#06B6D4"/><circle cx="115" cy="122" r="4" fill="#06B6D4"/></g>
<text x="100" y="190" text-anchor="middle" font-family="Helvetica, Arial, sans-serif" font-size="11" font-weight="700" letter-spacing="2" fill="#06B6D4">PIXEL · MIND</text>
</svg>