<svg xmlns="http://www.w3.org/2000/svg" viewBox="0 0 200 200" width="200" height="200">
<rect width="200" height="200" fill="#FAFAFA"/>
<defs>
<linearGradient id="gR15" x1="0" y1="0" x2="1" y2="1">
<stop offset="0" stop-color="#06B6D4"/><stop offset="1" stop-color="#3B82F6"/>
</linearGradient>
</defs>
<g stroke="url(#gR15)" stroke-width="3.2" fill="none" stroke-linecap="round">
<path d="M100 58 C82 56 66 70 70 92 C58 102 64 124 80 130 C80 142 96 146 100 138" fill="none"/><path d="M100 58 C118 56 134 70 130 92 C142 102 136 124 120 130 C120 142 104 146 100 138" fill="none"/><path d="M78 80 Q88 92 78 102 Q68 112 78 124" fill="none"/><path d="M122 80 Q112 92 122 102 Q132 112 122 124" fill="none"/>
</g>
<g stroke="#fff" stroke-width="1.2" fill="none" opacity="0.85">
<line x1="78" y1="80" x2="122" y2="80"/>
<line x1="78" y1="80" x2="78" y2="125"/>
<line x1="122" y1="80" x2="122" y2="125"/>
<line x1="78" y1="125" x2="122" y2="125"/>
<line x1="100" y1="62" x2="78" y2="80"/>
<line x1="100" y1="62" x2="122" y2="80"/>
<line x1="78" y1="125" x2="100" y2="138"/>
<line x1="122" y1="125" x2="100" y2="138"/>
</g>
<g fill="#fff" stroke="url(#gR15)" stroke-width="1.5">
<circle cx="100" cy="62" r="3.5"/>
<circle cx="78" cy="80" r="3.5"/>
<circle cx="122" cy="80" r="3.5"/>
<circle cx="78" cy="125" r="3.5"/>
<circle cx="122" cy="125" r="3.5"/>
<circle cx="100" cy="138" r="3.5"/>
</g>
<text x="100" y="190" text-anchor="middle" font-family="Helvetica, Arial, sans-serif" font-size="11" font-weight="700" letter-spacing="2" fill="#3B82F6">GRADIENT · NETWORK</text>
</svg>