<svg xmlns="http://www.w3.org/2000/svg" viewBox="0 0 200 200" width="200" height="200">
<rect width="200" height="200" fill="#FAFAFA"/>
<g stroke="#4338CA" stroke-width="2.2" fill="none" stroke-linecap="round">
<path d="M95 56 C72 56 58 76 62 100 C52 110 60 132 80 138 C84 150 95 150 95 138 Z" stroke-width="3"/>
<path d="M82 78 Q92 90 82 102 Q72 114 82 126" opacity="0.7"/>
<path d="M70 105 Q80 110 75 122" opacity="0.5" stroke-width="1.5"/>
</g>
<g>
<line x1="105" y1="56" x2="138" y2="76" stroke="#C026D3" stroke-width="1.4" opacity="0.55"/>
<line x1="105" y1="56" x2="125" y2="100" stroke="#C026D3" stroke-width="1.4" opacity="0.55"/>
<line x1="138" y1="76" x2="148" y2="110" stroke="#C026D3" stroke-width="1.4" opacity="0.55"/>
<line x1="138" y1="76" x2="125" y2="100" stroke="#C026D3" stroke-width="1.4" opacity="0.55"/>
<line x1="125" y1="100" x2="148" y2="110" stroke="#C026D3" stroke-width="1.4" opacity="0.55"/>
<line x1="125" y1="100" x2="115" y2="135" stroke="#C026D3" stroke-width="1.4" opacity="0.55"/>
<line x1="148" y1="110" x2="135" y2="138" stroke="#C026D3" stroke-width="1.4" opacity="0.55"/>
<line x1="115" y1="135" x2="135" y2="138" stroke="#C026D3" stroke-width="1.4" opacity="0.55"/>
<circle cx="105" cy="56" r="3.5" fill="#C026D3"/>
<circle cx="138" cy="76" r="3.5" fill="#C026D3"/>
<circle cx="148" cy="110" r="3.5" fill="#C026D3"/>
<circle cx="115" cy="135" r="3.5" fill="#C026D3"/>
<circle cx="135" cy="138" r="3.5" fill="#C026D3"/>
<circle cx="125" cy="100" r="5" fill="#C026D3"/>
<circle cx="125" cy="100" r="9" fill="none" stroke="#C026D3" stroke-width="1" stroke-dasharray="2 2" opacity="0.55"/>
</g>
<line x1="100" y1="48" x2="100" y2="156" stroke="#8b909d" stroke-width="1" stroke-dasharray="2 3" opacity="0.5"/>
<text x="100" y="190" text-anchor="middle" font-family="Helvetica, Arial, sans-serif" font-size="11" font-weight="700" letter-spacing="2" fill="#C026D3">DUAL · MIND</text>
</svg>