<svg xmlns="http://www.w3.org/2000/svg" viewBox="0 0 200 200" width="200" height="200">
<rect width="200" height="200" fill="#FAFAFA"/>
<g stroke="#B45309" stroke-width="2.2" fill="none" stroke-linecap="round" stroke-linejoin="round">
<path d="M55 100 Q55 60 100 60 Q145 60 145 100 Q145 142 100 142 L100 145" stroke-width="3"/>
<path d="M65 100 Q65 70 100 70 Q135 70 135 100 Q135 132 100 132"/>
<path d="M75 100 Q75 80 100 80 Q125 80 125 100 Q125 122 100 122"/>
<path d="M85 100 Q85 90 100 90 Q115 90 115 100 Q115 112 100 112"/>
<path d="M95 100 Q95 96 100 96 Q105 96 105 100" opacity="0.7"/>
<path d="M58 110 Q72 130 90 132" opacity="0.5" stroke-width="1.8"/>
<path d="M50 90 Q55 70 65 60" opacity="0.5" stroke-width="1.8"/>
</g>
<text x="100" y="190" text-anchor="middle" font-family="Helvetica, Arial, sans-serif" font-size="11" font-weight="700" letter-spacing="2" fill="#B45309">FINGERPRINT</text>
</svg>