<svg xmlns="http://www.w3.org/2000/svg" viewBox="0 0 200 200" width="200" height="200">
<rect width="200" height="200" fill="#FAFAFA"/>
<g stroke="#0891B2" stroke-width="3" fill="none" stroke-linecap="round" stroke-linejoin="round">
<path d="M50 130 C60 100 90 95 100 110 C110 95 140 100 150 130"/>
<path d="M55 115 C75 90 95 95 100 110" opacity="0.85"/>
<path d="M100 110 C105 95 125 90 145 115" opacity="0.85"/>
<path d="M65 90 Q75 70 90 80 Q98 88 100 100" opacity="0.7"/>
<path d="M100 100 Q102 88 110 80 Q125 70 135 90" opacity="0.7"/>
<path d="M75 65 Q85 50 95 65" opacity="0.55" stroke-width="2.4"/>
<path d="M105 65 Q115 50 125 65" opacity="0.55" stroke-width="2.4"/>
<circle cx="100" cy="100" r="3" fill="#0891B2"/>
</g>
<text x="100" y="190" text-anchor="middle" font-family="Helvetica, Arial, sans-serif" font-size="11" font-weight="700" letter-spacing="2" fill="#0891B2">HOKUSAI</text>
</svg>