<svg xmlns="http://www.w3.org/2000/svg" viewBox="0 0 200 200" width="200" height="200">
<rect width="200" height="200" fill="#FAFAFA"/>
<g stroke="#1f2937" fill="none" stroke-linecap="round">
<path d="M58 92 C62 60 100 50 105 75" stroke-width="6"/>
<path d="M105 75 C108 55 152 58 148 95" stroke-width="5"/>
<path d="M148 95 C162 110 152 142 130 138" stroke-width="4.5"/>
<path d="M130 138 C132 152 110 158 102 144" stroke-width="4"/>
<path d="M102 144 C95 158 70 152 72 136" stroke-width="3.5"/>
<path d="M72 136 C50 134 42 102 58 92" stroke-width="3"/>
<path d="M88 80 C100 70 120 78 116 95" stroke-width="2.4" opacity="0.7"/>
<path d="M82 110 C92 100 108 110 100 124" stroke-width="2" opacity="0.6"/>
</g>
<text x="100" y="190" text-anchor="middle" font-family="Helvetica, Arial, sans-serif" font-size="11" font-weight="700" letter-spacing="2" fill="#1f2937">CALLIGRAPHY</text>
</svg>