<svg xmlns="http://www.w3.org/2000/svg" viewBox="0 0 200 200" width="200" height="200">
<rect width="200" height="200" fill="#FAFAFA"/>
<g stroke="#059669" stroke-width="2" fill="none" stroke-linecap="round" stroke-linejoin="round">
<path d="M55 100 Q55 60 100 55 Q150 55 145 100 Q150 145 100 145 Q55 145 55 100 Z" stroke-width="2.8"/>
<path d="M65 100 Q68 70 100 68 Q138 68 135 100 Q140 132 100 132 Q65 132 65 100 Z" opacity="0.85"/>
<path d="M76 100 Q82 80 100 80 Q126 80 124 100 Q128 120 100 120 Q76 120 76 100 Z" opacity="0.7"/>
<path d="M86 100 Q92 90 100 90 Q116 90 114 100 Q118 110 100 110 Q86 110 86 100 Z" opacity="0.55"/>
<path d="M94 100 Q98 96 100 96 Q106 96 105 100 Q108 104 100 104 Q94 104 94 100 Z" opacity="0.4"/>
<circle cx="100" cy="100" r="2" fill="#059669"/>
</g>
<text x="100" y="190" text-anchor="middle" font-family="Helvetica, Arial, sans-serif" font-size="11" font-weight="700" letter-spacing="2" fill="#059669">TOPOGRAPH</text>
</svg>