<svg xmlns="http://www.w3.org/2000/svg" viewBox="0 0 200 200" width="200" height="200">
<rect width="200" height="200" fill="#FAFAFA"/>
<g stroke="#1f2937" stroke-width="3.5" fill="none" stroke-linecap="round" stroke-linejoin="round">
<path d="M75 65 C50 75 45 110 65 122 C55 138 75 155 92 145 L100 158 L108 145 C130 152 152 138 145 115 C160 95 150 65 125 60 C115 50 88 50 75 65 Z"/>
<path d="M82 80 C95 70 115 75 112 92 C95 90 80 100 92 115 C108 118 122 105 115 90"/>
<path d="M92 115 C92 125 100 132 108 128" opacity="0.7" stroke-width="2.4"/>
</g>
<text x="100" y="190" text-anchor="middle" font-family="Helvetica, Arial, sans-serif" font-size="11" font-weight="700" letter-spacing="2" fill="#1f2937">BUBBLE · BRAIN</text>
</svg>