<svg xmlns="http://www.w3.org/2000/svg" viewBox="0 0 200 200" width="200" height="200">
<rect width="200" height="200" fill="#FAFAFA"/>
<g stroke="#6366F1" stroke-width="2.6" fill="none" stroke-linecap="round">
<path d="M75 150 C70 130 90 120 80 100 C70 80 95 70 88 50"/>
<path d="M100 152 C95 130 110 118 105 100 C100 80 115 75 110 55"/>
<path d="M125 150 C120 130 135 120 128 100 C122 82 138 72 132 52" opacity="0.85"/>
<path d="M82 130 Q90 125 86 118" opacity="0.5" stroke-width="1.6"/>
<path d="M108 130 Q116 125 112 118" opacity="0.5" stroke-width="1.6"/>
<path d="M120 110 Q128 105 124 98" opacity="0.5" stroke-width="1.6"/>
<circle cx="88" cy="50" r="3" fill="#6366F1"/>
<circle cx="110" cy="55" r="3" fill="#6366F1" opacity="0.85"/>
<circle cx="132" cy="52" r="3" fill="#6366F1" opacity="0.7"/>
</g>
<text x="100" y="190" text-anchor="middle" font-family="Helvetica, Arial, sans-serif" font-size="11" font-weight="700" letter-spacing="2" fill="#6366F1">SMOKE</text>
</svg>