<svg xmlns="http://www.w3.org/2000/svg" viewBox="0 0 200 200" width="200" height="200">
<rect width="200" height="200" fill="#FAFAFA"/>
<g stroke="#0EA5E9" stroke-width="3" fill="none" stroke-linecap="round" stroke-linejoin="round">
<path d="M70 80 C70 60 100 60 100 80 C100 100 130 100 130 80 C130 60 100 60 100 80"/>
<path d="M70 120 C70 140 100 140 100 120 C100 100 130 100 130 120 C130 140 100 140 100 120"/>
<path d="M70 80 C50 90 50 110 70 120"/>
<path d="M130 80 C150 90 150 110 130 120"/>
<path d="M85 95 Q100 100 115 95" opacity="0.6" stroke-width="2"/>
<path d="M85 105 Q100 100 115 105" opacity="0.6" stroke-width="2"/>
</g>
<text x="100" y="190" text-anchor="middle" font-family="Helvetica, Arial, sans-serif" font-size="11" font-weight="700" letter-spacing="2" fill="#0EA5E9">KNOT</text>
</svg>