<svg xmlns="http://www.w3.org/2000/svg" viewBox="0 0 200 200" width="200" height="200">
<rect width="200" height="200" fill="#FAFAFA"/>
<g stroke="#F97316" stroke-width="3.2" fill="none" stroke-linecap="round" stroke-linejoin="round">
<path d="M100 150 C70 145 60 115 75 95 C68 115 85 120 88 110 C82 90 95 70 100 50 C108 70 122 90 116 112 C118 122 132 118 128 100 C140 118 132 145 100 150 Z"/>
<path d="M85 130 C90 115 100 115 100 100" opacity="0.7" stroke-width="2"/>
<path d="M115 130 C110 115 100 115 100 100" opacity="0.7" stroke-width="2"/>
<circle cx="100" cy="115" r="3" fill="#F97316"/>
</g>
<text x="100" y="190" text-anchor="middle" font-family="Helvetica, Arial, sans-serif" font-size="11" font-weight="700" letter-spacing="2" fill="#F97316">FLAME</text>
</svg>