<svg xmlns="http://www.w3.org/2000/svg" viewBox="0 0 200 200" width="200" height="200">
<rect width="200" height="200" fill="#FAFAFA"/>
<g stroke="#3B82F6" stroke-width="3.2" fill="none" stroke-linecap="round" stroke-linejoin="round">
<path d="M55 110 C42 110 42 90 55 88 C55 70 80 65 88 78 C92 60 120 60 125 78 C140 75 155 92 145 108 C158 115 150 138 130 134 C125 148 100 150 95 138 C82 148 60 142 60 125 C50 122 50 112 55 110 Z"/>
<path d="M75 105 Q85 95 80 88" opacity="0.65" stroke-width="2"/>
<path d="M105 100 Q115 90 110 80" opacity="0.65" stroke-width="2"/>
<path d="M120 115 Q130 108 128 100" opacity="0.55" stroke-width="2"/>
<path d="M85 120 Q95 115 92 108" opacity="0.55" stroke-width="2"/>
</g>
<text x="100" y="190" text-anchor="middle" font-family="Helvetica, Arial, sans-serif" font-size="11" font-weight="700" letter-spacing="2" fill="#3B82F6">CLOUD · MIND</text>
</svg>