<svg xmlns="http://www.w3.org/2000/svg" viewBox="0 0 200 200" width="200" height="200">
<rect width="200" height="200" fill="#FAFAFA"/>
<g stroke="#14B8A6" stroke-width="4" fill="none" stroke-linecap="round" stroke-linejoin="round">
<path d="M72 95 C58 75 78 50 100 60 C115 48 145 58 142 88 C158 100 148 132 128 132 C132 148 108 156 100 142 C92 156 70 148 72 132 C52 130 44 102 60 92 C55 82 67 72 78 78 C84 92 98 92 100 102 C108 102 116 92 112 80 C124 78 130 92 118 100 C108 108 96 110 90 102"/>
</g>
<text x="100" y="190" text-anchor="middle" font-family="Helvetica, Arial, sans-serif" font-size="11" font-weight="700" letter-spacing="2" fill="#14B8A6">SINGLE · STROKE</text>
</svg>