<svg xmlns="http://www.w3.org/2000/svg" viewBox="0 0 200 200" width="200" height="200">
<rect width="200" height="200" fill="#FAFAFA"/>
<g stroke="#DB2777" stroke-width="3.4" fill="none" stroke-linecap="round" stroke-linejoin="round">
<path d="M100 100 C100 70 75 60 60 75 C45 90 55 115 75 115 C90 115 95 105 90 95 C85 88 95 85 95 95"/>
<path d="M100 100 C100 70 125 60 140 75 C155 90 145 115 125 115 C110 115 105 105 110 95 C115 88 105 85 105 95"/>
<path d="M100 100 C95 115 95 138 100 145 C105 138 105 115 100 100"/>
<circle cx="100" cy="100" r="4" fill="#DB2777"/>
</g>
<text x="100" y="190" text-anchor="middle" font-family="Helvetica, Arial, sans-serif" font-size="11" font-weight="700" letter-spacing="2" fill="#DB2777">TWIN · CURLS</text>
</svg>