<svg xmlns="http://www.w3.org/2000/svg" viewBox="0 0 200 200" width="200" height="200">
<rect width="200" height="200" fill="#FAFAFA"/>
<path d="M100 28 C55 28 32 65 38 108 C42 132 52 142 56 152 L56 178 L112 178 L112 152 C120 150 128 144 130 138 S124 122 130 112 C142 112 154 108 156 102 S150 96 146 92 S142 64 136 50 C124 34 108 28 100 28 Z" fill="#3730A3"/>
<g stroke="#FAFAFA" stroke-width="1.5" fill="none">
<line x1="75" y1="38" x2="88" y2="50"/><line x1="75" y1="38" x2="65" y2="65"/><line x1="75" y1="38" x2="52" y2="56"/><line x1="102" y1="42" x2="88" y2="50"/><line x1="102" y1="42" x2="115" y2="55"/><line x1="102" y1="42" x2="98" y2="60"/><line x1="52" y1="56" x2="65" y2="65"/><line x1="52" y1="56" x2="58" y2="80"/><line x1="88" y1="50" x2="65" y2="65"/><line x1="88" y1="50" x2="98" y2="60"/><line x1="88" y1="50" x2="80" y2="72"/><line x1="115" y1="55" x2="98" y2="60"/><line x1="115" y1="55" x2="110" y2="72"/><line x1="65" y1="65" x2="80" y2="72"/><line x1="65" y1="65" x2="58" y2="80"/><line x1="98" y1="60" x2="80" y2="72"/><line x1="98" y1="60" x2="102" y2="88"/><line x1="80" y1="72" x2="72" y2="88"/><line x1="80" y1="72" x2="92" y2="80"/><line x1="80" y1="72" x2="85" y2="95"/><line x1="110" y1="72" x2="102" y2="88"/><line x1="58" y1="80" x2="72" y2="88"/><line x1="92" y1="80" x2="72" y2="88"/><line x1="92" y1="80" x2="102" y2="88"/><line x1="92" y1="80" x2="85" y2="95"/><line x1="72" y1="88" x2="85" y2="95"/><line x1="102" y1="88" x2="85" y2="95"/>
</g>
<g fill="#FAFAFA">
<circle cx="75" cy="38" r="4"/><circle cx="102" cy="42" r="3"/><circle cx="52" cy="56" r="3"/><circle cx="88" cy="50" r="3"/><circle cx="115" cy="55" r="4"/><circle cx="65" cy="65" r="3"/><circle cx="98" cy="60" r="3"/><circle cx="80" cy="72" r="3"/><circle cx="110" cy="72" r="4"/><circle cx="58" cy="80" r="3"/><circle cx="92" cy="80" r="3"/><circle cx="72" cy="88" r="3"/><circle cx="102" cy="88" r="4"/><circle cx="85" cy="95" r="3"/>
</g>
<text x="100" y="190" text-anchor="middle" font-family="Helvetica, Arial, sans-serif" font-size="11" font-weight="700" letter-spacing="2" fill="#3730A3">INDIGO · MIRROR</text>
</svg>