<svg xmlns="http://www.w3.org/2000/svg" viewBox="0 0 200 200" width="200" height="200">
<rect width="200" height="200" fill="#FAFAFA"/>
<path d="M100 28 C145 28 168 65 162 108 C158 132 148 142 144 152 L144 178 L88 178 L88 152 C80 150 72 144 70 138 S76 122 70 112 C58 112 46 108 44 102 S50 96 54 92 S58 64 64 50 C76 34 92 28 100 28 Z" fill="none" stroke="#1E3A8A" stroke-width="2.6" stroke-linejoin="round"/>
<g>
<line x1="125" y1="38" x2="112" y2="50" stroke="#1E3A8A" stroke-width="0.9" opacity="0.45"/><line x1="125" y1="38" x2="135" y2="65" stroke="#1E3A8A" stroke-width="0.9" opacity="0.45"/><line x1="125" y1="38" x2="148" y2="56" stroke="#1E3A8A" stroke-width="0.9" opacity="0.45"/><line x1="98" y1="42" x2="112" y2="50" stroke="#1E3A8A" stroke-width="0.9" opacity="0.45"/><line x1="98" y1="42" x2="85" y2="55" stroke="#1E3A8A" stroke-width="0.9" opacity="0.45"/><line x1="98" y1="42" x2="102" y2="60" stroke="#1E3A8A" stroke-width="0.9" opacity="0.45"/><line x1="148" y1="56" x2="135" y2="65" stroke="#1E3A8A" stroke-width="0.9" opacity="0.45"/><line x1="148" y1="56" x2="142" y2="80" stroke="#1E3A8A" stroke-width="0.9" opacity="0.45"/><line x1="112" y1="50" x2="135" y2="65" stroke="#1E3A8A" stroke-width="0.9" opacity="0.45"/><line x1="112" y1="50" x2="102" y2="60" stroke="#1E3A8A" stroke-width="0.9" opacity="0.45"/><line x1="112" y1="50" x2="120" y2="72" stroke="#1E3A8A" stroke-width="0.9" opacity="0.45"/><line x1="85" y1="55" x2="102" y2="60" stroke="#1E3A8A" stroke-width="0.9" opacity="0.45"/><line x1="85" y1="55" x2="90" y2="72" stroke="#1E3A8A" stroke-width="0.9" opacity="0.45"/><line x1="135" y1="65" x2="120" y2="72" stroke="#1E3A8A" stroke-width="0.9" opacity="0.45"/>
<circle cx="125" cy="38" r="3" fill="#1E3A8A"/><circle cx="125" cy="38" r="6" stroke="#1E3A8A" stroke-width="0.7" fill="none" opacity="0.45"/><circle cx="98" cy="42" r="2" fill="#1E3A8A"/><circle cx="98" cy="42" r="5" stroke="#1E3A8A" stroke-width="0.7" fill="none" opacity="0.45"/><circle cx="148" cy="56" r="2" fill="#1E3A8A"/><circle cx="148" cy="56" r="5" stroke="#1E3A8A" stroke-width="0.7" fill="none" opacity="0.45"/><circle cx="112" cy="50" r="2" fill="#1E3A8A"/><circle cx="112" cy="50" r="5" stroke="#1E3A8A" stroke-width="0.7" fill="none" opacity="0.45"/><circle cx="85" cy="55" r="3" fill="#1E3A8A"/><circle cx="85" cy="55" r="6" stroke="#1E3A8A" stroke-width="0.7" fill="none" opacity="0.45"/><circle cx="135" cy="65" r="2" fill="#1E3A8A"/><circle cx="135" cy="65" r="5" stroke="#1E3A8A" stroke-width="0.7" fill="none" opacity="0.45"/><circle cx="102" cy="60" r="2" fill="#1E3A8A"/><circle cx="102" cy="60" r="5" stroke="#1E3A8A" stroke-width="0.7" fill="none" opacity="0.45"/><circle cx="120" cy="72" r="2" fill="#1E3A8A"/><circle cx="120" cy="72" r="5" stroke="#1E3A8A" stroke-width="0.7" fill="none" opacity="0.45"/><circle cx="90" cy="72" r="3" fill="#1E3A8A"/><circle cx="90" cy="72" r="6" stroke="#1E3A8A" stroke-width="0.7" fill="none" opacity="0.45"/><circle cx="142" cy="80" r="2" fill="#1E3A8A"/><circle cx="142" cy="80" r="5" stroke="#1E3A8A" stroke-width="0.7" fill="none" opacity="0.45"/><circle cx="108" cy="80" r="2" fill="#1E3A8A"/><circle cx="108" cy="80" r="5" stroke="#1E3A8A" stroke-width="0.7" fill="none" opacity="0.45"/><circle cx="128" cy="88" r="2" fill="#1E3A8A"/><circle cx="128" cy="88" r="5" stroke="#1E3A8A" stroke-width="0.7" fill="none" opacity="0.45"/><circle cx="98" cy="88" r="3" fill="#1E3A8A"/><circle cx="98" cy="88" r="6" stroke="#1E3A8A" stroke-width="0.7" fill="none" opacity="0.45"/><circle cx="115" cy="95" r="2" fill="#1E3A8A"/><circle cx="115" cy="95" r="5" stroke="#1E3A8A" stroke-width="0.7" fill="none" opacity="0.45"/>
</g>
<text x="100" y="190" text-anchor="middle" font-family="Helvetica, Arial, sans-serif" font-size="11" font-weight="700" letter-spacing="2" fill="#1E3A8A">STELLAR · MIND</text>
</svg>